<svg width="112" height="20" viewBox="0 0 112 20" fill="none" xmlns="http://www.w3.org/2000/svg">
<path d="M30.3483 0.11084V4.93518H40.9946V7.87174H23.9414V20H29.7105H46.4772V0.11084H30.3483ZM29.7088 15.2097V12.899H40.9946V15.2097H29.7088Z" fill="#25373B"/>
<path d="M22.6091 0.100541V19.8652H17.0105V13.0865H5.56616V19.8447H0V0.0800781H5.56616V7.47263H17.0105V0.100541H22.6091Z" fill="#25373B"/>
<path d="M69.076 0.11084V19.8652H47.8789V0.11084H53.6156V15.0989H63.4928V0.11084H69.076Z" fill="#25373B"/>
<path d="M90.4007 14.6845V19.8652H70.4707V0.172241H76.1886V14.6845H90.4007Z" fill="#25373B"/>
<path d="M108.773 9.93176L108.56 10.0085L108.773 10.104L111.619 11.3898V19.93H105.82V12.8103H97.3545V19.93H91.6895V0H97.3545V8.39868H105.82V0.356411H111.619V8.89664L108.773 9.93176Z" fill="#25373B"/>
<path d="M108.774 9.93176V10.104L108.561 10.0085L108.774 9.93176Z" fill="#25373B"/>
</svg>
