<svg width="48" height="48" viewBox="0 0 48 48" fill="none" xmlns="http://www.w3.org/2000/svg">
<circle cx="24" cy="24" r="24" fill="#1692AD"/>
<path d="M25.9223 15.2832V23.2608C25.9223 24.24 25.1255 25.0368 24.1463 25.0368H15.3623C14.8343 25.0368 14.4023 24.6048 14.4023 24.0768V17.9424C14.4023 15.984 15.9863 14.4 17.9447 14.4H25.0295C25.5287 14.4 25.9223 14.7936 25.9223 15.2832Z" fill="white"/>
<path d="M33.1223 27.36C33.3911 27.36 33.6023 27.5712 33.6023 27.84V28.8C33.6023 30.3936 32.3159 31.68 30.7223 31.68C30.7223 30.096 29.4263 28.8 27.8423 28.8C26.2583 28.8 24.9623 30.096 24.9623 31.68H23.0423C23.0423 30.096 21.7463 28.8 20.1623 28.8C18.5783 28.8 17.2823 30.096 17.2823 31.68C15.6887 31.68 14.4023 30.3936 14.4023 28.8V26.88C14.4023 26.352 14.8343 25.92 15.3623 25.92H24.4823C25.8071 25.92 26.8823 24.8448 26.8823 23.52V18.24C26.8823 17.712 27.3143 17.28 27.8423 17.28H28.6487C29.3399 17.28 29.9735 17.6544 30.3191 18.2496L30.9335 19.3248C31.0199 19.4784 30.9047 19.68 30.7223 19.68C29.3975 19.68 28.3223 20.7552 28.3223 22.08V24.96C28.3223 26.2848 29.3975 27.36 30.7223 27.36H33.1223Z" fill="white"/>
<path d="M20.1622 33.6C21.2226 33.6 22.0822 32.7404 22.0822 31.68C22.0822 30.6196 21.2226 29.76 20.1622 29.76C19.1018 29.76 18.2422 30.6196 18.2422 31.68C18.2422 32.7404 19.1018 33.6 20.1622 33.6Z" fill="white"/>
<path d="M27.8419 33.6C28.9023 33.6 29.7619 32.7404 29.7619 31.68C29.7619 30.6196 28.9023 29.76 27.8419 29.76C26.7815 29.76 25.9219 30.6196 25.9219 31.68C25.9219 32.7404 26.7815 33.6 27.8419 33.6Z" fill="white"/>
<path d="M33.6017 24.5088V25.92H30.7217C30.1937 25.92 29.7617 25.488 29.7617 24.96V22.08C29.7617 21.552 30.1937 21.12 30.7217 21.12H31.9601L33.3521 23.5584C33.5153 23.8464 33.6017 24.1728 33.6017 24.5088Z" fill="white"/>
</svg>
