<svg width="48" height="48" viewBox="0 0 48 48" fill="none" xmlns="http://www.w3.org/2000/svg">
<circle cx="24" cy="24" r="24" fill="#60A5FA"/>
<path d="M21.6 31.8C21.6 32.2774 21.4104 32.7352 21.0728 33.0728C20.7352 33.4104 20.2774 33.6 19.8 33.6C19.3226 33.6 18.8648 33.4104 18.5272 33.0728C18.1896 32.7352 18 32.2774 18 31.8C18 31.3226 18.1896 30.8648 18.5272 30.5272C18.8648 30.1896 19.3226 30 19.8 30C20.2774 30 20.7352 30.1896 21.0728 30.5272C21.4104 30.8648 21.6 31.3226 21.6 31.8ZM30 31.8C30 32.2774 29.8104 32.7352 29.4728 33.0728C29.1352 33.4104 28.6774 33.6 28.2 33.6C27.7226 33.6 27.2648 33.4104 26.9272 33.0728C26.5896 32.7352 26.4 32.2774 26.4 31.8C26.4 31.3226 26.5896 30.8648 26.9272 30.5272C27.2648 30.1896 27.7226 30 28.2 30C28.6774 30 29.1352 30.1896 29.4728 30.5272C29.8104 30.8648 30 31.3226 30 31.8Z" fill="white"/>
<path d="M15.6004 16.8C15.2821 16.8 14.9769 16.9264 14.7519 17.1515C14.5268 17.3765 14.4004 17.6817 14.4004 18V30C14.4004 30.3182 14.5268 30.6235 14.7519 30.8485C14.9769 31.0736 15.2821 31.2 15.6004 31.2H16.8604C16.9981 30.5218 17.366 29.9121 17.9018 29.4742C18.4376 29.0362 19.1084 28.797 19.8004 28.797C20.4924 28.797 21.1631 29.0362 21.6989 29.4742C22.2348 29.9121 22.6027 30.5218 22.7404 31.2H24.0004C24.3187 31.2 24.6239 31.0736 24.8489 30.8485C25.074 30.6235 25.2004 30.3182 25.2004 30V18C25.2004 17.6817 25.074 17.3765 24.8489 17.1515C24.6239 16.9264 24.3187 16.8 24.0004 16.8H15.6004ZM28.8004 20.4C28.4821 20.4 28.1769 20.5264 27.9519 20.7515C27.7268 20.9765 27.6004 21.2817 27.6004 21.6V28.86C27.9865 28.7811 28.3843 28.7791 28.7712 28.854C29.1581 28.9289 29.5264 29.0793 29.8552 29.2966C30.1839 29.5139 30.4666 29.7939 30.6871 30.1204C30.9076 30.447 31.0617 30.8139 31.1404 31.2H32.4004C32.7186 31.2 33.0239 31.0736 33.2489 30.8485C33.474 30.6235 33.6004 30.3182 33.6004 30V24C33.6003 23.6818 33.4739 23.3766 33.2488 23.1516L30.8488 20.7516C30.6238 20.5265 30.3186 20.4001 30.0004 20.4H28.8004Z" fill="white"/>
</svg>
