<svg width="121" height="25" viewBox="0 0 121 25" fill="none" xmlns="http://www.w3.org/2000/svg">
<path d="M33.3527 0.134277V5.98149H44.7463V9.54065H26.4961V24.2403H32.6701H50.6138V0.134277H33.3527ZM32.6683 18.4345V15.6338H44.7463V18.4345H32.6683Z" fill="#25373B"/>
<path d="M25.0712 0.12197V24.0771H19.0796V15.8613H6.83188V24.0523H0.875V0.097168H6.83188V9.0571H19.0796V0.12197H25.0712Z" fill="#25373B"/>
<path d="M74.8013 0.134277V24.077H52.1162V0.134277H58.2556V18.3001H68.8261V0.134277H74.8013Z" fill="#25373B"/>
<path d="M97.622 17.7981V24.0773H76.293V0.208984H82.4123V17.7981H97.622Z" fill="#25373B"/>
<path d="M117.286 12.0375L117.058 12.1305L117.286 12.2463L120.332 13.8047V24.1556H114.125V15.5264H105.066V24.1556H99.0029V0H105.066V10.1794H114.125V0.431977H120.332V10.7829L117.286 12.0375Z" fill="#25373B"/>
<path d="M117.287 12.0371V12.2459L117.059 12.1301L117.287 12.0371Z" fill="#25373B"/>
</svg>
