<svg width="35" height="34" viewBox="0 0 35 34" fill="none" xmlns="http://www.w3.org/2000/svg">
<path d="M12.902 26.5072L12.2764 22.6671C12.098 21.5996 11.4367 20.6833 10.4799 20.1777L7.02658 18.3659C4.07447 16.8214 4.83405 12.3886 8.13908 11.9273L9.86772 11.691C10.1105 11.6514 10.3537 11.6979 10.5554 11.8236L22.5721 18.7516C23.0629 19.0387 23.2496 19.6562 22.9963 20.1597L19.3551 27.486C17.884 30.4715 13.4376 29.7956 12.902 26.5072Z" fill="#FAFAFA"/>
<path d="M23.1012 17.397L15.2311 12.8656C14.3463 12.3573 14.6071 11.0099 15.6178 10.8724L22.0757 9.96092C24.8172 9.57323 26.8654 12.4113 25.6337 14.8911L24.6056 16.9526C24.3235 17.5015 23.6456 17.7071 23.1012 17.397Z" fill="#FAFAFA"/>
</svg>
