<svg width="29" height="7" viewBox="0 0 29 7" fill="none" xmlns="http://www.w3.org/2000/svg">
<path d="M3.80156 6.88929C2.9181 6.88929 2.16421 6.57713 1.5399 5.95282C0.927361 5.32851 0.621094 4.57462 0.621094 3.69115C0.621094 2.81947 0.927361 2.07147 1.5399 1.44715C2.16421 0.822838 2.92399 0.510681 3.81923 0.510681C4.69092 0.510681 5.43303 0.822838 6.04556 1.44715C6.66988 2.07147 6.98203 2.81947 6.98203 3.69115C6.98203 4.57462 6.66988 5.32851 6.04556 5.95282C5.43303 6.57713 4.68503 6.88929 3.80156 6.88929Z" fill="#979797"/>
<path d="M14.4998 6.88929C13.6163 6.88929 12.8624 6.57713 12.2381 5.95282C11.6256 5.32851 11.3193 4.57462 11.3193 3.69115C11.3193 2.81947 11.6256 2.07147 12.2381 1.44715C12.8624 0.822838 13.6222 0.510681 14.5174 0.510681C15.3891 0.510681 16.1312 0.822838 16.7438 1.44715C17.3681 2.07147 17.6802 2.81947 17.6802 3.69115C17.6802 4.57462 17.3681 5.32851 16.7438 5.95282C16.1312 6.57713 15.3832 6.88929 14.4998 6.88929Z" fill="#979797"/>
<path d="M25.198 6.88929C24.3145 6.88929 23.5606 6.57713 22.9363 5.95282C22.3238 5.32851 22.0175 4.57462 22.0175 3.69115C22.0175 2.81947 22.3238 2.07147 22.9363 1.44715C23.5606 0.822838 24.3204 0.510681 25.2156 0.510681C26.0873 0.510681 26.8294 0.822838 27.442 1.44715C28.0663 2.07147 28.3784 2.81947 28.3784 3.69115C28.3784 4.57462 28.0663 5.32851 27.442 5.95282C26.8294 6.57713 26.0814 6.88929 25.198 6.88929Z" fill="#979797"/>
</svg>
