<svg width="48" height="48" viewBox="0 0 48 48" fill="none" xmlns="http://www.w3.org/2000/svg">
<path d="M27.999 5.84V22.46C27.999 24.5 26.339 26.16 24.299 26.16H5.99902C4.89902 26.16 3.99902 25.26 3.99902 24.16V11.38C3.99902 7.3 7.29902 4 11.379 4H26.139C27.179 4 27.999 4.82 27.999 5.84Z" fill="white"/>
<path d="M42.999 31C43.559 31 43.999 31.44 43.999 32V34C43.999 37.32 41.319 40 37.999 40C37.999 36.7 35.299 34 31.999 34C28.699 34 25.999 36.7 25.999 40H21.999C21.999 36.7 19.299 34 15.999 34C12.699 34 9.99902 36.7 9.99902 40C6.67902 40 3.99902 37.32 3.99902 34V30C3.99902 28.9 4.89902 28 5.99902 28H24.999C27.759 28 29.999 25.76 29.999 23V12C29.999 10.9 30.899 10 31.999 10H33.679C35.119 10 36.439 10.78 37.159 12.02L38.439 14.26C38.619 14.58 38.379 15 37.999 15C35.239 15 32.999 17.24 32.999 20V26C32.999 28.76 35.239 31 37.999 31H42.999Z" fill="white"/>
<path d="M15.9971 44C18.2062 44 19.9971 42.2091 19.9971 40C19.9971 37.7909 18.2062 36 15.9971 36C13.7879 36 11.9971 37.7909 11.9971 40C11.9971 42.2091 13.7879 44 15.9971 44Z" fill="white"/>
<path d="M32 44C34.2091 44 36 42.2091 36 40C36 37.7909 34.2091 36 32 36C29.7909 36 28 37.7909 28 40C28 42.2091 29.7909 44 32 44Z" fill="white"/>
<path d="M43.998 25.06V28H37.998C36.898 28 35.998 27.1 35.998 26V20C35.998 18.9 36.898 18 37.998 18H40.5781L43.478 23.08C43.818 23.68 43.998 24.36 43.998 25.06Z" fill="white"/>
</svg>
