<svg width="24" height="25" viewBox="0 0 24 25" fill="none" xmlns="http://www.w3.org/2000/svg">
<path d="M16.8 2.5H14.2C11 2.5 9 4.5 9 7.7V11.75H15.25C15.66 11.75 16 12.09 16 12.5C16 12.91 15.66 13.25 15.25 13.25H9V17.3C9 20.5 11 22.5 14.2 22.5H16.79C19.99 22.5 21.99 20.5 21.99 17.3V7.7C22 4.5 20 2.5 16.8 2.5Z" fill="#687380"/>
<path d="M4.55945 11.75L6.62945 9.67997C6.77945 9.52997 6.84945 9.33997 6.84945 9.14997C6.84945 8.95997 6.77945 8.75997 6.62945 8.61997C6.33945 8.32997 5.85945 8.32997 5.56945 8.61997L2.21945 11.97C1.92945 12.26 1.92945 12.74 2.21945 13.03L5.56945 16.38C5.85945 16.67 6.33945 16.67 6.62945 16.38C6.91945 16.09 6.91945 15.61 6.62945 15.32L4.55945 13.25H8.99945V11.75H4.55945Z" fill="#687380"/>
</svg>
