<svg width="190" height="168" viewBox="0 0 190 168" fill="none" xmlns="http://www.w3.org/2000/svg">
<circle cx="102.785" cy="82.8633" r="78.8436" fill="#E5F1F4"/>
<path d="M115.033 64.2622L188.985 85.1319L181.272 167.249L92.8027 145.019L115.033 64.2622Z" fill="#1692AD"/>
<path d="M188.533 84.6782L110.952 64.7159C107.171 70.1602 97.4321 84.2245 88.7213 96.9278C80.0105 109.631 64.8271 125.208 58.3242 131.408L149.062 158.176C150.725 157.268 157.773 150.644 172.654 131.408C187.535 112.172 189.44 92.2397 188.533 84.6782Z" fill="#F3F3F3" stroke="#CCCCCC" stroke-width="0.907376"/>
<circle cx="117.758" cy="86.0393" r="3.62951" fill="#7C8789"/>
<circle cx="106.87" cy="105.094" r="3.62951" fill="#7C8789"/>
<circle cx="95.9811" cy="122.334" r="3.62951" fill="#7C8789"/>
<circle cx="44.8345" cy="44.8343" r="33.4445" transform="rotate(25.8347 44.8345 44.8343)" fill="#F0F0F0" stroke="#1692AD" stroke-width="0.236814"/>
<rect width="18.1475" height="2.72213" transform="matrix(1 0 0 -1 34.3965 54.3618)" fill="#7C8789"/>
<circle cx="25.7777" cy="39.3901" r="4.99057" fill="#7C8789"/>
<circle cx="61.1683" cy="39.3901" r="4.99057" fill="#7C8789"/>
<rect x="116.143" y="108.226" width="43.5541" height="1.81475" rx="0.907376" transform="rotate(15.5 116.143 108.226)" fill="#7C8789"/>
<rect x="106.643" y="126.615" width="39.4226" height="1.81475" rx="0.907376" transform="rotate(15.5 106.643 126.615)" fill="#7C8789"/>
<rect x="128.098" y="88.8025" width="43.5541" height="1.81475" rx="0.907376" transform="rotate(14.5 128.098 88.8025)" fill="#7C8789"/>
</svg>
