<svg width="48" height="48" viewBox="0 0 48 48" fill="none" xmlns="http://www.w3.org/2000/svg">
<circle cx="24" cy="24" r="24" fill="#F87171"/>
<path d="M29.6005 17.31L23.9505 14.27C23.3505 13.95 22.6405 13.95 22.0405 14.27L16.4005 17.31C15.9905 17.54 15.7305 17.98 15.7305 18.46C15.7305 18.95 15.9805 19.39 16.4005 19.61L22.0505 22.65C22.3505 22.81 22.6805 22.89 23.0005 22.89C23.3205 22.89 23.6605 22.81 23.9505 22.65L29.6005 19.61C30.0105 19.39 30.2705 18.95 30.2705 18.46C30.2705 17.98 30.0105 17.54 29.6005 17.31Z" fill="white"/>
<path d="M21.12 23.71L15.87 21.09C15.46 20.88 15 20.91 14.61 21.14C14.23 21.38 14 21.79 14 22.24V27.2C14 28.06 14.48 28.83 15.25 29.22L20.5 31.84C20.68 31.93 20.88 31.98 21.08 31.98C21.31 31.98 21.55 31.91 21.76 31.79C22.14 31.55 22.37 31.14 22.37 30.69V25.73C22.36 24.87 21.88 24.1 21.12 23.71Z" fill="white"/>
<path d="M32.0006 22.24V24.7C31.5206 24.56 31.0106 24.5 30.5006 24.5C29.1406 24.5 27.8106 24.97 26.7606 25.81C25.3206 26.94 24.5006 28.65 24.5006 30.5C24.5006 30.99 24.5606 31.48 24.6906 31.95C24.5406 31.93 24.3906 31.87 24.2506 31.78C23.8706 31.55 23.6406 31.14 23.6406 30.69V25.73C23.6406 24.87 24.1206 24.1 24.8806 23.71L30.1306 21.09C30.5406 20.88 31.0006 20.91 31.3906 21.14C31.7706 21.38 32.0006 21.79 32.0006 22.24Z" fill="white"/>
<path d="M33.98 27.65C33.16 26.64 31.91 26 30.5 26C29.44 26 28.46 26.37 27.69 26.99C26.65 27.81 26 29.08 26 30.5C26 31.91 26.64 33.16 27.65 33.98C28.42 34.62 29.42 35 30.5 35C31.64 35 32.67 34.57 33.47 33.88C34.4 33.05 35 31.85 35 30.5C35 29.42 34.62 28.42 33.98 27.65ZM31.53 30.78C31.53 31.04 31.39 31.29 31.17 31.42L29.76 32.26C29.64 32.33 29.51 32.37 29.37 32.37C29.12 32.37 28.87 32.24 28.73 32.01C28.52 31.65 28.63 31.19 28.99 30.98L30.03 30.36V29.1C30.03 28.69 30.37 28.35 30.78 28.35C31.19 28.35 31.53 28.69 31.53 29.1V30.78Z" fill="white"/>
</svg>
