<svg width="48" height="48" viewBox="0 0 48 48" fill="none" xmlns="http://www.w3.org/2000/svg">
<circle cx="24" cy="24" r="24" fill="#F87171"/>
<path d="M30.6 22.8C27.6154 22.8 25.2 25.2154 25.2 28.2C25.2 31.1847 27.6154 33.6 30.6 33.6C33.5846 33.6 36 31.1847 36 28.2C36 25.2154 33.5846 22.8 30.6 22.8ZM33 28.4359C33 28.6362 32.8361 28.8 32.6359 28.8H30.3645C30.1643 28.8 30.0004 28.6362 30.0004 28.4359V25.5645C30.0004 25.3643 30.1643 25.2004 30.3645 25.2004H30.8359C31.0361 25.2004 31.2 25.3643 31.2 25.5645V27.6H32.6359C32.8361 27.6 33 27.7639 33 27.9641V28.4359ZM30.6 21.6C30.8025 21.6 31.002 21.6124 31.2 21.6304V19.8C31.2 18.84 30.36 18 29.4 18H26.4V16.2C26.4 15.24 25.56 14.4 24.6 14.4H18.6C17.64 14.4 16.8 15.24 16.8 16.2V18H13.8C12.84 18 12 18.84 12 19.8V22.8H26.817C27.8895 22.0466 29.1926 21.6 30.6 21.6ZM24 18H19.2V16.8H24V18ZM24.2558 26.4H19.8C19.4685 26.4 19.2 26.1315 19.2 25.8V24H12V29.4C12 30.36 12.84 31.2 13.8 31.2H24.7286C24.2663 30.2985 24 29.2808 24 28.2C24 27.5753 24.093 26.973 24.2558 26.4Z" fill="white"/>
</svg>
