<svg width="32" height="32" viewBox="0 0 32 32" fill="none" xmlns="http://www.w3.org/2000/svg">
<circle cx="16" cy="16" r="16" fill="#1692AD"/>
<path fill-rule="evenodd" clip-rule="evenodd" d="M15.9996 14.8C16.9544 14.8 17.8701 14.4207 18.5452 13.7456C19.2203 13.0705 19.5996 12.1548 19.5996 11.2C19.5996 10.2452 19.2203 9.32955 18.5452 8.65442C17.8701 7.97929 16.9544 7.60001 15.9996 7.60001C15.0448 7.60001 14.1292 7.97929 13.454 8.65442C12.7789 9.32955 12.3996 10.2452 12.3996 11.2C12.3996 12.1548 12.7789 13.0705 13.454 13.7456C14.1292 14.4207 15.0448 14.8 15.9996 14.8ZM7.59961 25.6C7.59961 24.4969 7.81688 23.4046 8.23902 22.3855C8.66116 21.3663 9.2799 20.4403 10.0599 19.6603C10.8399 18.8803 11.7659 18.2616 12.7851 17.8394C13.8042 17.4173 14.8965 17.2 15.9996 17.2C17.1027 17.2 18.195 17.4173 19.2142 17.8394C20.2333 18.2616 21.1593 18.8803 21.9393 19.6603C22.7193 20.4403 23.3381 21.3663 23.7602 22.3855C24.1823 23.4046 24.3996 24.4969 24.3996 25.6H7.59961Z" fill="white"/>
</svg>
