<svg width="35" height="34" viewBox="0 0 35 34" fill="none" xmlns="http://www.w3.org/2000/svg">
<path d="M12.9044 26.5069L12.2789 22.6667C12.1005 21.5993 11.4392 20.683 10.4823 20.1773L7.02903 18.3655C4.07691 16.821 4.83649 12.3882 8.14153 11.9269L9.87016 11.6906C10.1129 11.6511 10.3561 11.6975 10.5578 11.8233L22.5746 18.7513C23.0654 19.0383 23.2521 19.6559 22.9988 20.1593L19.3575 27.4856C17.8864 30.4711 13.4401 29.7953 12.9044 26.5069Z" fill="#FAFAFA"/>
<path d="M23.1014 17.3968L15.2314 12.8654C14.3466 12.357 14.6074 11.0096 15.6181 10.8722L22.0759 9.96067C24.8175 9.57298 26.8657 12.4111 25.6339 14.8909L24.6059 16.9523C24.3237 17.5012 23.6458 17.7068 23.1014 17.3968Z" fill="#FAFAFA"/>
</svg>
