<svg width="48" height="48" viewBox="0 0 48 48" fill="none" xmlns="http://www.w3.org/2000/svg">
<circle cx="24" cy="24" r="24" fill="#1692AD"/>
<path d="M33.4286 13.5H14.5714C13.1518 13.5 12 14.5078 12 15.75V32.25C12 33.4922 13.1518 34.5 14.5714 34.5H33.4286C34.8482 34.5 36 33.4922 36 32.25V15.75C36 14.5078 34.8482 13.5 33.4286 13.5ZM16.9286 25.875C16.575 25.875 16.2857 25.6219 16.2857 25.3125V22.6875C16.2857 22.3781 16.575 22.125 16.9286 22.125H31.0714C31.425 22.125 31.7143 22.3781 31.7143 22.6875V25.3125C31.7143 25.6219 31.425 25.875 31.0714 25.875H16.9286Z" fill="white"/>
</svg>
