<svg width="100" height="21" viewBox="0 0 100 21" fill="none" xmlns="http://www.w3.org/2000/svg">
<path d="M27.1888 0.113342V5.04733H36.7268V8.05063H21.449V20.4545H26.6174H41.6386V0.113342H27.1888ZM26.6159 15.5554V13.1922H36.7268V15.5554H26.6159Z" fill="#25373B"/>
<path d="M20.2553 0.102959V20.3168H15.2396V13.3841H4.98667V20.2959H0V0.0820312H4.98667V7.64259H15.2396V0.102959H20.2553Z" fill="#25373B"/>
<path d="M61.8843 0.113342V20.3167H42.894V0.113342H48.0335V15.442H56.8824V0.113342H61.8843Z" fill="#25373B"/>
<path d="M80.9904 15.0182V20.3167H63.1353V0.176086H68.2579V15.0182H80.9904Z" fill="#25373B"/>
<path d="M97.4501 10.1575L97.2591 10.236L97.4501 10.3336L99.9999 11.6487V20.383H94.8039V13.1015H87.2201V20.383H82.1448V0H87.2201V8.58956H94.8039V0.364511H99.9999V9.09884L97.4501 10.1575Z" fill="#25373B"/>
<path d="M97.4495 10.1577V10.3339L97.2585 10.2362L97.4495 10.1577Z" fill="#25373B"/>
</svg>
