<svg width="103" height="132" viewBox="0 0 103 132" fill="none" xmlns="http://www.w3.org/2000/svg">
<circle cx="51.5005" cy="51.27" r="51.27" fill="#1692AD"/>
<rect x="30.7051" y="49.4773" width="51.6286" height="71.7063" rx="5.73651" transform="rotate(2.5 30.7051 49.4773)" fill="#EEEEEE"/>
<rect x="31.3902" y="50.225" width="50.1944" height="70.2722" rx="5.01944" transform="rotate(2.5 31.3902 50.225)" stroke="#1692AD" stroke-opacity="0.56" stroke-width="1.43413"/>
<rect x="2.34961" y="46.6394" width="51.6286" height="71.7063" rx="5.73651" transform="rotate(-7.5 2.34961 46.6394)" fill="#FAFAFA"/>
<rect x="1.54509" y="46.0221" width="53.0627" height="73.1404" rx="6.45357" transform="rotate(-7.5 1.54509 46.0221)" stroke="#1692AD" stroke-opacity="0.56" stroke-width="1.43413"/>
<path d="M3.09837 52.3268C2.68484 49.1858 4.89596 46.3042 8.03704 45.8906L47.849 40.6493C50.9901 40.2358 53.8717 42.4469 54.2852 45.588L55.6892 56.2519L4.50231 62.9908L3.09837 52.3268Z" fill="#EEEEEE"/>
<rect x="64.666" y="42.0515" width="2.15119" height="7.17063" rx="1.07559" transform="rotate(82.5 64.666 42.0515)" fill="#1692AD" fill-opacity="0.56"/>
<rect x="45.0273" y="30.1719" width="2.15119" height="7.17063" rx="1.07559" transform="rotate(-7.5 45.0273 30.1719)" fill="#1692AD" fill-opacity="0.56"/>
<rect x="57.627" y="32.1294" width="2.15119" height="7.17063" rx="1.07559" transform="rotate(37.5 57.627 32.1294)" fill="#1692AD" fill-opacity="0.56"/>
<rect x="9.85352" y="65.1794" width="41.5897" height="2.86825" rx="1.43413" transform="rotate(-7.5 9.85352 65.1794)" fill="#DCDCDC"/>
<rect x="11.7266" y="79.3979" width="41.5897" height="2.86825" rx="1.43413" transform="rotate(-7.5 11.7266 79.3979)" fill="#DCDCDC"/>
<rect x="13.5938" y="93.6167" width="41.5897" height="2.86825" rx="1.43413" transform="rotate(-7.5 13.5938 93.6167)" fill="#DCDCDC"/>
<rect x="10.6035" y="70.8672" width="15.0583" height="2.86825" rx="1.43413" transform="rotate(-7.5 10.6035 70.8672)" fill="#EEEEEE"/>
<rect x="12.4746" y="85.0845" width="15.0583" height="2.86825" rx="1.43413" transform="rotate(-7.5 12.4746 85.0845)" fill="#EEEEEE"/>
<rect x="14.3418" y="99.3032" width="15.0583" height="2.86825" rx="1.43413" transform="rotate(-7.5 14.3418 99.3032)" fill="#EEEEEE"/>
</svg>
