<svg width="100" height="100" viewBox="0 0 100 100" fill="none" xmlns="http://www.w3.org/2000/svg">
<path d="M99.9656 83.0093C100.345 81.9849 56.818 49.1188 56.818 49.1188C51.3687 45.0976 48.5027 45.0343 43.1141 49.1188C43.1141 49.1188 -0.349219 81.9583 0.0166016 82.9687L0.0078125 82.9761C0.0123047 82.9849 0.0195312 82.9909 0.0255859 82.9989C0.394128 84.0036 0.930304 84.9385 1.61133 85.764C1.89902 86.1128 2.2457 86.405 2.5791 86.7087L2.56289 86.7212C2.58945 86.7448 2.6248 86.7558 2.65137 86.7794C4.06445 88.0399 5.84648 88.8563 7.82617 89.0894C7.85723 89.0931 7.88223 89.1093 7.91328 89.113H8.03281C8.33379 89.1417 8.61992 89.214 8.92813 89.214H91.1002C95.1465 89.214 98.5746 86.6694 99.9363 83.1024C99.9525 83.0759 99.9775 83.0567 99.9924 83.0294L99.9656 83.0093Z" fill="#1692AD" fill-opacity="0.8"/>
<path d="M50.0258 45.3468L0.237305 82.6882V29.788C0.237305 24.6317 4.41641 20.4526 9.57266 20.4526H90.4789C95.6352 20.4526 99.8143 24.6317 99.8143 29.788V82.6882L50.0258 45.3468Z" fill="#1692AD" fill-opacity="0.6"/>
<path d="M0.818359 26.5424L43.3271 59.9309C48.6924 63.89 51.5143 63.9525 56.8199 59.9309L99.2619 26.5953C98.5256 25.2605 97.4232 24.2061 96.1625 23.3652L96.7463 22.9078C95.3215 21.6107 93.5002 20.7699 91.4785 20.5527L8.57715 20.5557C6.56113 20.7699 4.73691 21.6137 3.31504 22.9078L3.89453 23.3596C2.64844 24.1887 1.55625 25.225 0.818359 26.5424Z" fill="#EDECE6"/>
<path d="M0.804492 26.6121C0.43125 27.6209 43.2873 59.9803 43.2873 59.9803C48.6525 63.9394 51.4744 64.0019 56.7801 59.9803C56.7801 59.9803 99.5736 27.6471 99.2133 26.6521L99.2221 26.6449C99.2178 26.6361 99.2105 26.6305 99.2047 26.6225C98.8418 25.6333 98.3139 24.7127 97.6434 23.9C97.3602 23.5564 97.0187 23.2689 96.6906 22.9697L96.7066 22.9574C96.6805 22.9342 96.6457 22.9232 96.6195 22.9C95.2281 21.659 93.4736 20.8551 91.5246 20.6256C91.4941 20.6219 91.4693 20.6061 91.4389 20.6023H91.3213C91.025 20.574 90.7432 20.5029 90.4396 20.5029H9.5334C5.54941 20.5029 2.17402 23.0084 0.833594 26.5203C0.817578 26.5465 0.792969 26.5654 0.77832 26.5922L0.804492 26.6121Z" fill="#1692AD" fill-opacity="0.4"/>
</svg>
