<svg width="462" height="346" viewBox="0 0 462 346" fill="none" xmlns="http://www.w3.org/2000/svg">
<path opacity="0.3" d="M110.547 140.395C78.6458 146.058 56.0981 173.842 59.8003 204.325C61.7725 220.471 69.7651 234.807 90.3291 238.925C144.882 249.893 350.809 291.182 391.268 219.641C422.812 163.889 404.013 125.287 374.718 101.124C345.423 76.9621 284.758 81.9791 234.553 98.5179C197.22 110.847 169.459 129.923 110.547 140.395Z" fill="#E6E6E6"/>
<path opacity="0.45" d="M237.125 296.315C339.69 296.315 422.835 290.17 422.835 282.59C422.835 275.01 339.69 268.865 237.125 268.865C134.561 268.865 51.4155 275.01 51.4155 282.59C51.4155 290.17 134.561 296.315 237.125 296.315Z" fill="#E6E6E6"/>
<path d="M133.003 92.0358C145.194 92.0358 155.077 82.1526 155.077 69.961C155.077 57.7695 145.194 47.8862 133.003 47.8862C120.811 47.8862 110.928 57.7695 110.928 69.961C110.928 82.1526 120.811 92.0358 133.003 92.0358Z" fill="#FFD200"/>
<path opacity="0.15" d="M133.002 112.046C156.245 112.046 175.088 93.2041 175.088 69.9611C175.088 46.7181 156.245 27.876 133.002 27.876C109.759 27.876 90.9172 46.7181 90.9172 69.9611C90.9172 93.2041 109.759 112.046 133.002 112.046Z" fill="#FFD200"/>
<path d="M225.696 281.955C258.289 281.955 284.712 255.533 284.712 222.939C284.712 190.346 258.289 163.923 225.696 163.923C193.102 163.923 166.68 190.346 166.68 222.939C166.68 255.533 193.102 281.955 225.696 281.955Z" fill="#25373B"/>
<path d="M225.696 260.088C246.213 260.088 262.845 243.456 262.845 222.939C262.845 202.422 246.213 185.79 225.696 185.79C205.179 185.79 188.547 202.422 188.547 222.939C188.547 243.456 205.179 260.088 225.696 260.088Z" fill="white"/>
<path d="M154.443 237.022C158.352 237.022 159.76 238.429 159.76 242.327V249.051C159.76 252.961 158.606 254.368 154.443 254.368H143.659V274.84C143.659 278.738 142.252 280.145 138.342 280.145H130.684C126.786 280.145 125.379 278.738 125.379 274.84V254.368H73.8131C69.9149 254.368 68.5078 252.961 68.5078 249.051V243.423C68.4029 241.144 69.0515 238.895 70.3531 237.022L122.253 172.631C123.123 171.464 124.254 170.516 125.556 169.865C126.858 169.214 128.294 168.878 129.75 168.883H138.4C142.31 168.883 143.717 169.979 143.717 174.2V237.022H154.443ZM125.379 195.133L91.4591 237.022H125.379V195.133Z" fill="#1692AD"/>
<path d="M377.624 237.022C381.534 237.022 382.941 238.429 382.941 242.327V249.051C382.941 252.961 381.846 254.368 377.624 254.368H366.841V274.84C366.841 278.738 365.434 280.145 361.524 280.145H353.866C349.968 280.145 348.56 278.738 348.56 274.84V254.368H296.983C293.085 254.368 291.678 252.961 291.678 249.051V243.423C291.58 241.142 292.237 238.892 293.546 237.022L345.446 172.631C346.316 171.464 347.447 170.516 348.749 169.865C350.051 169.214 351.487 168.878 352.943 168.883H361.535C365.445 168.883 366.852 169.979 366.852 174.2V237.022H377.624ZM348.56 195.133L314.641 237.022H348.56V195.133Z" fill="#1692AD"/>
<path opacity="0.58" d="M354.477 156.312C354.477 156.312 344.662 153.636 342.528 144.49C342.528 144.49 357.741 141.422 358.179 157.119L354.477 156.312Z" fill="#1692AD"/>
<path opacity="0.73" d="M355.688 155.343C355.688 155.343 348.825 144.49 354.857 134.352C354.857 134.352 366.391 141.699 361.293 155.366L355.688 155.343Z" fill="#1692AD"/>
<path d="M357.452 155.355C357.452 155.355 361.074 143.89 372.042 141.722C372.042 141.722 374.095 149.161 364.937 155.378L357.452 155.355Z" fill="#1692AD"/>
<path d="M350.336 155.089L352.32 168.71L364.856 168.767L366.702 155.158L350.336 155.089Z" fill="#25373B"/>
<path d="M232.835 145.447C232.835 145.447 234.449 153.232 233.746 158.629C233.681 159.154 233.512 159.661 233.249 160.12C232.986 160.579 232.635 160.981 232.215 161.303C231.795 161.625 231.316 161.86 230.805 161.995C230.293 162.13 229.76 162.162 229.236 162.089C226.526 161.697 222.974 160.382 221.601 156.323L218.418 149.691C217.922 148.297 217.869 146.784 218.268 145.359C218.666 143.934 219.496 142.667 220.644 141.733C224.727 137.973 232.085 140.707 232.835 145.447Z" fill="#F4A28C"/>
<path d="M218.995 150.856L217.957 176.933L232.362 176.471L227.334 157.684L218.995 150.856Z" fill="#F4A28C"/>
<path d="M230.908 146C228.48 146.39 226.014 146.495 223.562 146.312C224.392 147.303 224.916 148.515 225.067 149.8C225.219 151.085 224.992 152.386 224.415 153.543C223.876 154.676 222.96 155.585 221.823 156.116C220.687 156.646 219.401 156.764 218.187 156.449L217.115 146.277C216.908 144.828 217.099 143.35 217.668 142.001C218.237 140.652 219.162 139.483 220.344 138.619C221.361 137.859 222.428 137.17 223.539 136.555C226.318 135.032 230.828 136.474 233.215 134.19C233.457 133.964 233.754 133.804 234.076 133.726C234.399 133.648 234.736 133.655 235.055 133.745C235.374 133.836 235.664 134.007 235.897 134.243C236.131 134.478 236.299 134.77 236.387 135.09C237.217 138.123 237.24 143.048 233.261 145.228C232.526 145.617 231.731 145.878 230.908 146Z" fill="#25373B"/>
<path d="M225.234 153.209C225.234 153.209 224.819 150.164 222.559 150.671C220.298 151.179 220.875 155.573 224.035 155.608L225.234 153.209Z" fill="#F4A28C"/>
<path d="M233.596 150.406L236.168 153.186C236.314 153.345 236.417 153.538 236.468 153.748C236.519 153.958 236.516 154.177 236.46 154.385C236.403 154.593 236.295 154.784 236.145 154.939C235.996 155.095 235.809 155.209 235.603 155.273L232.65 156.196L233.596 150.406Z" fill="#F4A28C"/>
<path opacity="0.31" d="M228.614 161.755C226.78 161.515 225.057 160.745 223.654 159.541C223.654 159.541 224.416 164.258 230.182 168.317L228.614 161.755Z" fill="#CE8172"/>
<path d="M217.98 176.933L232.385 176.471C232.385 176.471 255.014 172.631 262.868 191.084C270.722 209.537 260.653 235.614 260.653 235.614C260.653 235.614 252.465 263.144 217.98 260.1C217.98 260.1 189.297 258.439 186.056 219.122C185.909 217.407 185.647 215.704 185.271 214.024C183.957 207.877 183.195 189.227 217.98 176.933Z" fill="#1692AD"/>
<path opacity="0.08" d="M198.685 201.43C198.685 201.43 206.366 202.272 217.034 220.137C227.702 238.002 248.647 231.451 260.457 218.234L238.544 247.229L214.001 245.256L200.657 209.734L198.685 201.43Z" fill="black"/>
<path d="M278.581 160.644L282.799 160.08L284.439 172.358L280.221 172.921L278.581 160.644Z" fill="#FFD200"/>
<path opacity="0.08" d="M278.581 160.644L282.799 160.08L284.439 172.358L280.221 172.921L278.581 160.644Z" fill="black"/>
<path d="M278.688 169.657L285.17 168.791L287.276 184.556L280.794 185.422L278.688 169.657Z" fill="#25373B"/>
<path d="M276.8 134.675C274.065 135.041 271.499 136.211 269.428 138.035C267.357 139.859 265.874 142.257 265.165 144.924C264.457 147.592 264.555 150.409 265.448 153.021C266.341 155.632 267.988 157.921 270.181 159.596C272.374 161.272 275.015 162.259 277.769 162.434C280.524 162.609 283.268 161.963 285.655 160.578C288.043 159.193 289.966 157.132 291.182 154.654C292.397 152.176 292.851 149.394 292.485 146.658C292.243 144.841 291.644 143.09 290.725 141.504C289.805 139.919 288.582 138.53 287.125 137.417C285.669 136.304 284.007 135.489 282.235 135.019C280.464 134.548 278.617 134.431 276.8 134.675ZM279.96 158.272C278.027 158.533 276.059 158.215 274.306 157.358C272.553 156.5 271.094 155.142 270.114 153.455C269.133 151.768 268.675 149.829 268.798 147.881C268.92 145.934 269.618 144.066 270.802 142.516C271.986 140.965 273.603 139.8 275.45 139.169C277.296 138.538 279.288 138.469 281.174 138.97C283.06 139.472 284.754 140.521 286.043 141.986C287.332 143.451 288.157 145.266 288.414 147.2C288.756 149.781 288.064 152.393 286.49 154.467C284.915 156.541 282.585 157.908 280.006 158.272H279.96Z" fill="#FFD200"/>
<path d="M278.726 158.456C284.198 158.456 288.633 154.021 288.633 148.549C288.633 143.078 284.198 138.642 278.726 138.642C273.254 138.642 268.819 143.078 268.819 148.549C268.819 154.021 273.254 158.456 278.726 158.456Z" fill="white"/>
<path d="M185.687 203.367C186.038 202.013 186.779 200.793 187.819 199.857C188.858 198.922 190.15 198.313 191.533 198.107C192.916 197.9 194.33 198.105 195.597 198.696C196.865 199.287 197.93 200.237 198.662 201.429C204.166 210.34 208.801 219.76 212.502 229.559C220.748 251.542 261.184 237.044 276.108 185.79L284.62 191.084C284.62 191.084 272.879 257.654 225.615 260.099C225.615 260.099 196.113 266.074 187.151 229.87C187.151 229.87 184.845 223.054 184.706 219.202L184.084 214.866C183.988 211.015 184.502 207.173 185.606 203.482L185.687 203.367Z" fill="#1692AD"/>
<path opacity="0.39" d="M185.687 203.367C186.038 202.013 186.779 200.793 187.819 199.857C188.858 198.922 190.15 198.313 191.533 198.107C192.916 197.9 194.33 198.105 195.597 198.696C196.865 199.287 197.93 200.237 198.662 201.429C204.166 210.34 208.801 219.76 212.502 229.559C220.748 251.542 261.184 237.044 276.108 185.79L284.62 191.084C284.62 191.084 272.879 257.654 225.615 260.099C225.615 260.099 196.113 266.074 187.151 229.87C187.151 229.87 184.845 223.054 184.706 219.202L184.084 214.866C183.988 211.015 184.502 207.173 185.606 203.482L185.687 203.367Z" fill="white"/>
<path d="M278.265 187.082C278.265 187.082 279.13 176.114 283.651 176.137C288.172 176.16 298.794 184.279 282.394 189.642L278.265 187.082Z" fill="#F4A28C"/>
<path d="M396.158 103.339C396.158 101.271 395.337 99.2881 393.875 97.8259C392.413 96.3638 390.43 95.5424 388.362 95.5424C387.941 95.5421 387.52 95.5768 387.105 95.6462C386.21 93.9766 384.879 92.5805 383.255 91.6058C381.63 90.6312 379.773 90.1144 377.878 90.1102H377.498C377.955 88.2711 377.988 86.3519 377.593 84.4983C377.198 82.6447 376.386 80.9053 375.219 79.4122C374.052 77.9191 372.56 76.7114 370.856 75.8809C369.153 75.0503 367.283 74.6187 365.388 74.6187C363.492 74.6187 361.622 75.0503 359.919 75.8809C358.215 76.7114 356.723 77.9191 355.556 79.4122C354.389 80.9053 353.577 82.6447 353.182 84.4983C352.787 86.3519 352.82 88.2711 353.278 90.1102H352.897C351.487 90.0635 350.082 90.3008 348.766 90.8081C347.45 91.3154 346.249 92.0823 345.235 93.0631C344.221 94.0439 343.415 95.2186 342.865 96.5173C342.314 97.816 342.03 99.2122 342.03 100.623C342.03 102.033 342.314 103.43 342.865 104.728C343.415 106.027 344.221 107.202 345.235 108.183C346.249 109.163 347.45 109.93 348.766 110.438C350.082 110.945 351.487 111.182 352.897 111.135H389.377V111.066C391.251 110.818 392.972 109.897 394.219 108.476C395.466 107.055 396.155 105.23 396.158 103.339Z" fill="#E6E6E6"/>
<path d="M93.074 180.508C93.074 179.63 92.9009 178.76 92.5648 177.948C92.2286 177.137 91.7359 176.399 91.1147 175.778C90.4935 175.157 89.7561 174.664 88.9445 174.328C88.1329 173.992 87.2631 173.819 86.3846 173.819C86.0254 173.826 85.6671 173.857 85.312 173.911C84.5401 172.476 83.3933 171.278 81.994 170.443C80.5946 169.608 78.995 169.169 77.3656 169.171H77.0426C77.4394 167.593 77.471 165.944 77.1349 164.352C76.7988 162.759 76.1039 161.264 75.103 159.981C74.1021 158.697 72.8217 157.659 71.3591 156.944C69.8965 156.23 68.2903 155.859 66.6626 155.859C65.035 155.859 63.4287 156.23 61.9661 156.944C60.5035 157.659 59.2231 158.697 58.2223 159.981C57.2214 161.264 56.5265 162.759 56.1904 164.352C55.8543 165.944 55.8858 167.593 56.2826 169.171H55.9597C54.7489 169.128 53.5418 169.329 52.4105 169.762C51.2791 170.196 50.2467 170.853 49.3748 171.694C48.503 172.535 47.8095 173.543 47.3359 174.659C46.8623 175.774 46.6182 176.973 46.6182 178.184C46.6182 179.396 46.8623 180.595 47.3359 181.71C47.8095 182.825 48.503 183.834 49.3748 184.675C50.2467 185.516 51.2791 186.173 52.4105 186.606C53.5418 187.04 54.7489 187.241 55.9597 187.198H87.2496V187.14C88.859 186.928 90.3366 186.138 91.4079 184.919C92.4791 183.699 93.0711 182.132 93.074 180.508Z" fill="#E6E6E6"/>
</svg>
