<svg width="705" height="1024" viewBox="0 0 705 1024" fill="none" xmlns="http://www.w3.org/2000/svg">
<g clip-path="url(#clip0_879_4347)">
<rect width="705" height="1024" fill="#25373B"/>
<path d="M626.228 671.63L626.877 681.678L580.74 641.442L621.089 595.306L621.848 605.582L664.413 602.679L668.906 668.729L626.228 671.63Z" stroke="#31CF30" stroke-opacity="0.1" stroke-width="3.38361" stroke-miterlimit="10"/>
<path d="M529.389 586.244L528.174 576.3L576.379 613.858L538.707 662.174L537.383 652.004L495.124 657.167L486.904 591.516L529.389 586.244Z" stroke="#31CF30" stroke-opacity="0.1" stroke-width="3.38361" stroke-miterlimit="10"/>
<path d="M351.95 667.802L352.6 677.85L306.576 637.615L346.812 591.478L347.571 601.754L390.136 598.851L394.629 664.901L351.95 667.802Z" stroke="#31CF30" stroke-opacity="0.1" stroke-width="3.38361" stroke-miterlimit="10"/>
<path d="M483.544 711.035L493.483 710.159L454.364 757.101L407.198 717.865L417.476 716.881L413.669 674.416L479.627 668.456L483.544 711.035Z" stroke="#31CF30" stroke-opacity="0.1" stroke-width="3.38361" stroke-miterlimit="10"/>
<path d="M396.674 542.656L386.624 543.418L426.414 496.937L473.006 536.841L462.618 537.598L465.972 580.17L399.913 585.339L396.674 542.656Z" stroke="#31CF30" stroke-opacity="0.1" stroke-width="3.38361" stroke-miterlimit="10"/>
<path d="M255.125 582.416L253.91 572.473L302.228 610.032L264.443 658.346L263.231 648.177L220.86 653.339L212.752 587.69L255.125 582.416Z" stroke="#31CF30" stroke-opacity="0.1" stroke-width="3.38361" stroke-miterlimit="10"/>
<path d="M77.682 663.974L78.4441 674.024L32.3073 633.788L72.656 587.652L73.3022 597.926L115.868 595.023L120.36 661.073L77.682 663.974Z" stroke="#31CF30" stroke-opacity="0.1" stroke-width="3.38361" stroke-miterlimit="10"/>
<path d="M209.276 707.207L219.215 706.331L180.095 753.273L133.042 714.039L143.321 713.055L139.401 670.588L205.471 664.629L209.276 707.207Z" stroke="#31CF30" stroke-opacity="0.1" stroke-width="3.38361" stroke-miterlimit="10"/>
<path d="M122.405 538.828L112.356 539.591L152.145 493.109L198.738 533.013L188.463 533.772L191.704 576.342L125.645 581.511L122.405 538.828Z" stroke="#31CF30" stroke-opacity="0.1" stroke-width="3.38361" stroke-miterlimit="10"/>
<path d="M538.448 405.893L539.098 415.941L493.073 375.707L533.309 329.57L534.068 339.845L576.634 336.943L581.126 402.992L538.448 405.893Z" stroke="#31CF30" stroke-opacity="0.1" stroke-width="3.38361" stroke-miterlimit="10"/>
<path d="M670.042 449.127L679.981 448.25L640.861 495.192L593.697 455.844L603.974 454.973L600.167 412.507L666.124 406.547L670.042 449.127Z" stroke="#31CF30" stroke-opacity="0.1" stroke-width="3.38361" stroke-miterlimit="10"/>
<path d="M583.171 280.748L573.122 281.51L612.911 235.028L659.504 274.932L649.116 275.69L652.47 318.261L586.412 323.318L583.171 280.748Z" stroke="#31CF30" stroke-opacity="0.1" stroke-width="3.38361" stroke-miterlimit="10"/>
<path d="M441.732 320.509L440.404 310.564L488.721 348.124L450.937 396.438L449.725 386.269L407.354 391.43L399.246 325.782L441.732 320.509Z" stroke="#31CF30" stroke-opacity="0.1" stroke-width="3.38361" stroke-miterlimit="10"/>
<path d="M264.175 402.065L264.938 412.115L218.801 371.879L259.15 325.744L259.796 336.017L302.361 333.115L306.854 399.164L264.175 402.065Z" stroke="#31CF30" stroke-opacity="0.1" stroke-width="3.38361" stroke-miterlimit="10"/>
<path d="M395.77 445.299L405.708 444.422L366.589 491.364L319.537 452.018L329.814 451.146L326.008 408.681L391.965 402.721L395.77 445.299Z" stroke="#31CF30" stroke-opacity="0.1" stroke-width="3.38361" stroke-miterlimit="10"/>
<path d="M308.899 276.92L298.849 277.682L338.639 231.2L385.231 271.104L374.956 271.863L378.197 314.433L312.14 319.49L308.899 276.92Z" stroke="#31CF30" stroke-opacity="0.1" stroke-width="3.38361" stroke-miterlimit="10"/>
<path d="M167.462 316.681L166.247 306.738L214.452 344.296L176.78 392.611L175.455 382.441L133.197 387.604L124.976 321.954L167.462 316.681Z" stroke="#31CF30" stroke-opacity="0.1" stroke-width="3.38361" stroke-miterlimit="10"/>
<path d="M121.504 441.471L131.555 440.596L92.3233 487.537L45.2717 448.19L55.5484 447.318L51.742 404.853L117.699 398.893L121.504 441.471Z" stroke="#31CF30" stroke-opacity="0.1" stroke-width="3.38361" stroke-miterlimit="10"/>
<path d="M34.6293 273.092L24.6924 273.856L64.482 227.374L110.962 267.277L100.687 268.036L104.04 310.607L37.9831 315.664L34.6293 273.092Z" stroke="#31CF30" stroke-opacity="0.1" stroke-width="3.38361" stroke-miterlimit="10"/>
<path d="M628.233 58.6003L626.906 48.6556L675.223 86.2149L637.551 134.531L636.227 124.36L593.855 129.522L585.748 63.8729L628.233 58.6003Z" stroke="#31CF30" stroke-opacity="0.1" stroke-width="3.38361" stroke-miterlimit="10"/>
<path d="M450.79 140.158L451.439 150.207L405.302 109.971L445.651 63.8353L446.297 74.1089L488.863 71.2062L493.468 137.257L450.79 140.158Z" stroke="#31CF30" stroke-opacity="0.1" stroke-width="3.38361" stroke-miterlimit="10"/>
<path d="M582.271 183.39L592.323 182.515L553.091 229.456L506.039 190.109L516.316 189.238L512.509 146.772L578.467 140.812L582.271 183.39Z" stroke="#31CF30" stroke-opacity="0.1" stroke-width="3.38361" stroke-miterlimit="10"/>
<path d="M495.4 15.0113L485.351 15.7735L525.14 -30.708L571.733 9.19598L561.458 9.95496L564.699 52.525L498.754 57.583L495.4 15.0113Z" stroke="#31CF30" stroke-opacity="0.1" stroke-width="3.38361" stroke-miterlimit="10"/>
<path d="M353.956 54.7724L352.741 44.8293L400.946 82.387L363.274 130.703L361.949 120.532L319.691 125.695L311.471 60.045L353.956 54.7724Z" stroke="#31CF30" stroke-opacity="0.1" stroke-width="3.38361" stroke-miterlimit="10"/>
<path d="M176.517 136.331L177.167 146.379L131.143 106.144L171.379 60.0075L172.138 70.2827L214.703 67.3801L219.195 133.43L176.517 136.331Z" stroke="#31CF30" stroke-opacity="0.1" stroke-width="3.38361" stroke-miterlimit="10"/>
<path d="M307.998 179.562L318.05 178.687L278.818 225.628L231.766 186.282L242.043 185.41L238.236 142.945L304.194 136.984L307.998 179.562Z" stroke="#31CF30" stroke-opacity="0.1" stroke-width="3.38361" stroke-miterlimit="10"/>
<path d="M221.128 11.1835L211.191 11.9472L250.98 -34.5343L297.573 5.36968L287.185 6.12709L290.539 48.6987L224.481 53.7551L221.128 11.1835Z" stroke="#31CF30" stroke-opacity="0.1" stroke-width="3.38361" stroke-miterlimit="10"/>
<path d="M79.695 50.9449L78.4802 41.0018L126.685 78.5595L89.0127 126.875L87.801 116.707L45.4298 121.868L37.3221 56.2191L79.695 50.9449Z" stroke="#31CF30" stroke-opacity="0.1" stroke-width="3.38361" stroke-miterlimit="10"/>
<path d="M-19.6106 578.244L-20.8254 568.3L27.3792 605.858L-10.2929 654.174L-11.6173 644.004L-53.8758 649.167L-62.0962 583.516L-19.6106 578.244Z" stroke="#31CF30" stroke-opacity="0.1" stroke-width="3.38361" stroke-miterlimit="10"/>
<path d="M-10.5519 397.893L-9.9026 407.941L-55.9266 367.707L-15.6906 321.57L-14.9317 331.845L27.6337 328.943L32.1262 394.992L-10.5519 397.893Z" stroke="#31CF30" stroke-opacity="0.1" stroke-width="3.38361" stroke-miterlimit="10"/>
<path d="M33.2713 175.39L43.3225 174.515L4.09048 221.456L-42.9611 182.109L-32.6844 181.238L-36.4908 138.772L29.4664 132.812L33.2713 175.39Z" stroke="#31CF30" stroke-opacity="0.1" stroke-width="3.38361" stroke-miterlimit="10"/>
<path d="M-53.5997 7.01133L-63.6494 7.77346L-23.8598 -38.708L22.7329 1.19598L12.4577 1.95496L15.6987 44.525L-50.2459 49.583L-53.5997 7.01133Z" stroke="#31CF30" stroke-opacity="0.1" stroke-width="3.38361" stroke-miterlimit="10"/>
<path d="M597.171 1041.75L587.122 1042.51L626.911 996.028L673.504 1035.93L663.116 1036.69L666.47 1079.26L600.412 1084.32L597.171 1041.75Z" stroke="#31CF30" stroke-opacity="0.1" stroke-width="3.38361" stroke-miterlimit="10"/>
<path d="M322.899 1037.92L312.849 1038.68L352.639 992.2L399.231 1032.1L388.956 1032.86L392.197 1075.43L326.14 1080.49L322.899 1037.92Z" stroke="#31CF30" stroke-opacity="0.1" stroke-width="3.38361" stroke-miterlimit="10"/>
<path d="M48.6294 1034.09L38.6925 1034.86L78.4822 988.374L124.962 1028.28L114.687 1029.04L118.041 1071.61L51.9832 1076.66L48.6294 1034.09Z" stroke="#31CF30" stroke-opacity="0.1" stroke-width="3.38361" stroke-miterlimit="10"/>
<path d="M642.233 819.6L640.906 809.656L689.223 847.215L651.551 895.531L650.227 885.36L607.855 890.522L599.748 824.873L642.233 819.6Z" stroke="#31CF30" stroke-opacity="0.1" stroke-width="3.38361" stroke-miterlimit="10"/>
<path d="M464.79 901.158L465.439 911.207L419.302 870.971L459.651 824.835L460.297 835.109L502.863 832.206L507.468 898.257L464.79 901.158Z" stroke="#31CF30" stroke-opacity="0.1" stroke-width="3.38361" stroke-miterlimit="10"/>
<path d="M596.271 944.39L606.323 943.515L567.091 990.456L520.039 951.109L530.316 950.238L526.509 907.772L592.467 901.812L596.271 944.39Z" stroke="#31CF30" stroke-opacity="0.1" stroke-width="3.38361" stroke-miterlimit="10"/>
<path d="M509.4 776.011L499.351 776.773L539.14 730.292L585.733 770.196L575.458 770.955L578.699 813.525L512.754 818.583L509.4 776.011Z" stroke="#31CF30" stroke-opacity="0.1" stroke-width="3.38361" stroke-miterlimit="10"/>
<path d="M367.956 815.773L366.741 805.83L414.946 843.387L377.274 891.703L375.949 881.533L333.691 886.696L325.471 821.045L367.956 815.773Z" stroke="#31CF30" stroke-opacity="0.1" stroke-width="3.38361" stroke-miterlimit="10"/>
<path d="M190.517 897.331L191.167 907.379L145.143 867.144L185.379 821.008L186.138 831.283L228.703 828.38L233.195 894.43L190.517 897.331Z" stroke="#31CF30" stroke-opacity="0.1" stroke-width="3.38361" stroke-miterlimit="10"/>
<path d="M321.998 940.563L332.05 939.688L292.818 986.628L245.766 947.282L256.043 946.41L252.236 903.945L318.194 897.985L321.998 940.563Z" stroke="#31CF30" stroke-opacity="0.1" stroke-width="3.38361" stroke-miterlimit="10"/>
<path d="M235.128 772.184L225.191 772.947L264.98 726.466L311.573 766.37L301.185 767.127L304.539 809.699L238.481 814.755L235.128 772.184Z" stroke="#31CF30" stroke-opacity="0.1" stroke-width="3.38361" stroke-miterlimit="10"/>
<path d="M93.695 811.945L92.4802 802.002L140.685 839.559L103.013 887.875L101.801 877.707L59.4298 882.868L51.3221 817.219L93.695 811.945Z" stroke="#31CF30" stroke-opacity="0.1" stroke-width="3.38361" stroke-miterlimit="10"/>
<path d="M48.1713 1033.75L38.1216 1034.51L77.9113 988.028L124.504 1027.93L114.116 1028.69L117.47 1071.26L51.4123 1076.32L48.1713 1033.75Z" stroke="#31CF30" stroke-opacity="0.1" stroke-width="3.38361" stroke-miterlimit="10"/>
<path d="M47.2713 936.39L57.3225 935.515L18.0905 982.456L-28.9611 943.109L-18.6844 942.238L-22.4908 899.772L43.4664 893.812L47.2713 936.39Z" stroke="#31CF30" stroke-opacity="0.1" stroke-width="3.38361" stroke-miterlimit="10"/>
<path d="M-39.5997 768.011L-49.6494 768.773L-9.85978 722.292L36.7329 762.196L26.4577 762.955L29.6987 805.525L-36.2459 810.583L-39.5997 768.011Z" stroke="#31CF30" stroke-opacity="0.1" stroke-width="3.38361" stroke-miterlimit="10"/>
<path d="M285.206 457.293V470.043H313.343V477.804H268.273V509.858H283.52H327.833V457.293H285.206ZM283.516 497.198V491.091H313.343V497.198H283.516Z" fill="white"/>
<path d="M264.753 457.266V509.501H249.957V491.586H219.711V509.447H205V457.212H219.711V476.749H249.957V457.266H264.753Z" fill="white"/>
<path d="M387.56 457.293V509.502H331.538V457.293H346.7V496.905H372.804V457.293H387.56Z" fill="white"/>
<path d="M443.923 495.809V509.501H391.25V457.455H406.362V495.809H443.923Z" fill="white"/>
<path d="M492.478 483.248L491.914 483.451L492.478 483.704L500 487.102V509.673H484.672V490.856H462.299V509.673H447.327V457H462.299V479.197H484.672V457.942H500V480.513L492.478 483.248Z" fill="white"/>
<path d="M492.475 483.249V483.704L491.912 483.451L492.475 483.249Z" fill="white"/>
<path d="M208.36 553.618C207.4 553.618 206.632 554.386 206.632 555.346C206.632 556.306 207.4 557.074 208.36 557.074C209.296 557.074 210.064 556.306 210.064 555.346C210.064 554.386 209.296 553.618 208.36 553.618ZM217.063 553.618C216.103 553.618 215.335 554.386 215.335 555.346C215.335 556.306 216.103 557.074 217.063 557.074C217.999 557.074 218.767 556.306 218.767 555.346C218.767 554.386 217.999 553.618 217.063 553.618ZM225.766 553.618C224.806 553.618 224.038 554.386 224.038 555.346C224.038 556.306 224.806 557.074 225.766 557.074C226.702 557.074 227.47 556.306 227.47 555.346C227.47 554.386 226.702 553.618 225.766 553.618ZM243.805 556.858V549.49C243.805 548.362 244.117 547.426 244.765 546.682C245.413 545.914 246.277 545.53 247.357 545.53C249.589 545.53 250.669 547.09 250.669 549.394V556.858H252.541V548.938C252.541 545.866 250.813 543.826 247.813 543.826C245.917 543.826 244.405 544.666 243.301 546.37C242.509 544.666 241.141 543.802 239.197 543.802C237.373 543.802 236.149 544.618 235.069 546.274V544.042H233.221V556.858H235.093V549.562C235.093 548.458 235.405 547.498 236.053 546.706C236.701 545.914 237.565 545.506 238.645 545.506C240.853 545.506 241.957 547.114 241.957 549.346V556.858H243.805ZM264.276 557.074C266.148 557.074 267.732 556.426 269.004 555.154C270.276 553.882 270.924 552.298 270.924 550.402C270.924 548.554 270.276 547.018 269.004 545.746C267.732 544.474 266.172 543.826 264.324 543.826C262.428 543.826 260.844 544.474 259.572 545.746C258.3 547.018 257.676 548.602 257.676 550.498C257.676 552.322 258.3 553.882 259.572 555.154C260.844 556.426 262.428 557.074 264.276 557.074ZM264.324 555.418C262.956 555.418 261.804 554.938 260.916 553.954C260.028 552.97 259.596 551.77 259.596 550.402C259.596 549.034 260.028 547.858 260.916 546.898C261.804 545.938 262.908 545.458 264.276 545.458C265.644 545.458 266.772 545.962 267.66 546.946C268.548 547.93 269.004 549.13 269.004 550.498C269.004 551.866 268.548 553.018 267.66 553.978C266.772 554.938 265.668 555.418 264.324 555.418ZM274.661 544.042L280.109 556.858H282.101L287.573 544.042H285.581L281.117 554.794L276.725 544.042H274.661ZM303.12 551.026C303.144 550.906 303.144 550.69 303.144 550.402C303.144 548.458 302.616 546.898 301.56 545.674C300.504 544.45 299.016 543.826 297.096 543.826C295.344 543.826 293.856 544.474 292.656 545.794C291.456 547.114 290.856 548.65 290.856 550.426C290.856 552.274 291.48 553.858 292.728 555.154C293.976 556.426 295.512 557.074 297.36 557.074C299.664 557.074 301.704 555.874 302.784 553.762L301.392 552.85C300.648 554.386 299.136 555.418 297.336 555.418C296.088 555.418 295.032 555.01 294.168 554.17C293.304 553.33 292.824 552.274 292.752 551.026H303.12ZM292.776 549.442C292.944 548.338 293.424 547.402 294.24 546.634C295.056 545.842 296.016 545.458 297.096 545.458C299.496 545.458 300.984 547.042 301.248 549.442H292.776ZM319.857 556.858H321.921L325.329 546.442H325.353L328.737 556.858H330.825L335.145 544.042H333.201L329.817 554.698H329.793L326.289 544.042H324.417L320.937 554.674H320.913L317.553 544.042H315.561L319.857 556.858ZM339.406 539.458C339.406 540.226 340.03 540.85 340.798 540.85C341.59 540.85 342.214 540.226 342.214 539.458C342.214 538.666 341.59 538.042 340.798 538.042C340.03 538.042 339.406 538.666 339.406 539.458ZM341.758 544.042H339.862V556.858H341.758V544.042ZM352.467 556.954C353.019 556.954 353.523 556.882 353.931 556.762V555.202C353.667 555.274 353.283 555.298 352.779 555.298C351.387 555.298 350.691 554.698 350.691 553.498V545.698H353.931V544.042H350.691V540.346H348.843V544.042H346.467V545.698H348.843V553.546C348.843 555.826 350.043 556.954 352.467 556.954ZM370.208 556.858V548.938C370.208 545.866 368.432 543.802 365.36 543.802C363.464 543.802 362 544.642 360.968 546.346V537.322H359.096V556.858H360.968V549.562C360.968 548.41 361.328 547.45 362.048 546.682C362.768 545.89 363.68 545.506 364.784 545.506C367.088 545.506 368.336 547.018 368.336 549.394V556.858H370.208ZM396.292 551.026C396.316 550.906 396.316 550.69 396.316 550.402C396.316 548.458 395.788 546.898 394.732 545.674C393.676 544.45 392.188 543.826 390.268 543.826C388.516 543.826 387.028 544.474 385.828 545.794C384.628 547.114 384.028 548.65 384.028 550.426C384.028 552.274 384.652 553.858 385.9 555.154C387.148 556.426 388.684 557.074 390.532 557.074C392.836 557.074 394.876 555.874 395.956 553.762L394.564 552.85C393.82 554.386 392.308 555.418 390.508 555.418C389.26 555.418 388.204 555.01 387.34 554.17C386.476 553.33 385.996 552.274 385.924 551.026H396.292ZM385.948 549.442C386.116 548.338 386.596 547.402 387.412 546.634C388.228 545.842 389.188 545.458 390.268 545.458C392.668 545.458 394.156 547.042 394.42 549.442H385.948ZM405.718 549.466C404.374 549.466 403.198 549.778 402.166 550.378C401.158 550.978 400.654 551.89 400.654 553.162V553.306C400.654 554.386 401.038 555.298 401.83 556.018C402.622 556.714 403.678 557.074 404.95 557.074C406.774 557.074 408.214 556.258 409.27 554.602H409.294V556.858H411.118V548.578C411.118 547.786 410.998 547.09 410.734 546.466C409.966 544.714 408.406 543.826 406.054 543.826C403.51 543.826 401.758 544.93 400.798 547.138L402.334 548.002C403.126 546.322 404.35 545.482 406.006 545.482C408.19 545.482 409.27 546.514 409.27 548.602V549.466H405.718ZM409.27 551.458C409.27 552.634 408.886 553.57 408.142 554.314C407.398 555.058 406.438 555.418 405.286 555.418C403.678 555.418 402.526 554.578 402.526 553.162C402.598 551.482 404.23 550.978 405.694 551.002H409.27V551.458ZM425.678 553.21C425.678 552.418 425.366 551.698 424.766 551.098C424.07 550.378 422.942 549.85 421.406 549.514C419.03 549.01 418.406 548.554 418.406 547.498C418.406 546.946 418.67 546.49 419.174 546.082C419.678 545.674 420.302 545.482 420.998 545.482C422.318 545.482 423.326 546.202 423.998 547.642L425.534 546.802C424.67 544.81 423.158 543.826 420.998 543.826C419.846 543.826 418.814 544.186 417.902 544.906C416.99 545.626 416.534 546.538 416.534 547.642C416.534 548.386 416.774 549.01 417.23 549.562C417.926 550.354 418.814 550.762 420.566 551.146C422.894 551.698 423.782 552.25 423.782 553.33C423.782 554.602 422.51 555.418 421.046 555.418C419.534 555.418 418.382 554.578 417.59 552.922L416.054 553.762C417.038 555.97 418.718 557.074 421.07 557.074C422.39 557.074 423.494 556.714 424.358 555.994C425.246 555.25 425.678 554.338 425.678 553.21ZM442.346 551.026C442.37 550.906 442.37 550.69 442.37 550.402C442.37 548.458 441.842 546.898 440.786 545.674C439.73 544.45 438.242 543.826 436.322 543.826C434.57 543.826 433.082 544.474 431.882 545.794C430.682 547.114 430.082 548.65 430.082 550.426C430.082 552.274 430.706 553.858 431.954 555.154C433.202 556.426 434.738 557.074 436.586 557.074C438.89 557.074 440.93 555.874 442.01 553.762L440.618 552.85C439.874 554.386 438.362 555.418 436.562 555.418C435.314 555.418 434.258 555.01 433.394 554.17C432.53 553.33 432.05 552.274 431.978 551.026H442.346ZM432.002 549.442C432.17 548.338 432.65 547.402 433.466 546.634C434.282 545.842 435.242 545.458 436.322 545.458C438.722 545.458 440.21 547.042 440.474 549.442H432.002Z" fill="white"/>
</g>
<defs>
<clipPath id="clip0_879_4347">
<rect width="705" height="1024" fill="white"/>
</clipPath>
</defs>
</svg>
