<svg width="241" height="240" viewBox="0 0 241 240" fill="none" xmlns="http://www.w3.org/2000/svg">
<circle cx="128.785" cy="118.863" r="78.8436" fill="#E5F1F4"/>
<path d="M141.033 100.262L214.985 121.132L207.272 203.249L118.803 181.019L141.033 100.262Z" fill="#1692AD"/>
<path d="M214.533 120.678L136.952 100.716C133.171 106.16 123.432 120.224 114.721 132.928C106.011 145.631 90.8271 161.208 84.3242 167.408L175.062 194.176C176.725 193.268 183.773 186.644 198.654 167.408C213.535 148.172 215.44 128.24 214.533 120.678Z" fill="#F3F3F3" stroke="#CCCCCC" stroke-width="0.907376"/>
<circle cx="143.758" cy="122.039" r="3.62951" fill="#7C8789"/>
<circle cx="132.87" cy="141.094" r="3.62951" fill="#7C8789"/>
<circle cx="121.981" cy="158.334" r="3.62951" fill="#7C8789"/>
<circle cx="70.8345" cy="80.8343" r="33.4445" transform="rotate(25.8347 70.8345 80.8343)" fill="#F0F0F0" stroke="#1692AD" stroke-width="0.236814"/>
<rect width="18.1475" height="2.72213" transform="matrix(1 0 0 -1 60.3965 90.3619)" fill="#7C8789"/>
<circle cx="51.7777" cy="75.3901" r="4.99057" fill="#7C8789"/>
<circle cx="87.1683" cy="75.3901" r="4.99057" fill="#7C8789"/>
<rect x="142.143" y="144.226" width="43.5541" height="1.81475" rx="0.907376" transform="rotate(15.5 142.143 144.226)" fill="#7C8789"/>
<rect x="132.643" y="162.615" width="39.4226" height="1.81475" rx="0.907376" transform="rotate(15.5 132.643 162.615)" fill="#7C8789"/>
<rect x="154.098" y="124.803" width="43.5541" height="1.81475" rx="0.907376" transform="rotate(14.5 154.098 124.803)" fill="#7C8789"/>
</svg>
