<svg width="553" height="49" viewBox="0 0 553 49" fill="none" xmlns="http://www.w3.org/2000/svg">
<rect y="14" width="184" height="2" fill="#1692AD"/>
<circle cx="92" cy="15" r="10" fill="#1692AD"/>
<path d="M88.8125 10.332L89.4965 11.46L91.6085 10.188V18H93.0845V8.604H91.6805L88.8125 10.332Z" fill="white"/>
<path d="M60.5392 37.52C60.5392 36.716 60.2632 36.02 59.7112 35.456C59.1712 34.892 58.3432 34.604 57.2512 34.604H53.9272V44H55.4032V40.52H57.0712C58.1632 40.52 59.0032 40.232 59.6152 39.668C60.2272 39.092 60.5392 38.372 60.5392 37.52ZM57.1192 35.972C57.8152 35.972 58.3072 36.128 58.5952 36.44C58.8952 36.752 59.0392 37.124 59.0392 37.556C59.0392 38.42 58.4272 39.164 57.1192 39.164H55.4032V35.972H57.1192ZM67.5362 41.216C67.5482 41.108 67.5602 40.964 67.5602 40.772C67.5602 39.776 67.2842 38.984 66.7322 38.372C66.1802 37.76 65.4122 37.46 64.4402 37.46C63.5162 37.46 62.7482 37.784 62.1362 38.432C61.5242 39.08 61.2122 39.86 61.2122 40.784C61.2122 41.732 61.5362 42.536 62.1722 43.172C62.8202 43.808 63.6242 44.12 64.5722 44.12C65.7242 44.12 66.7682 43.568 67.3082 42.572L66.2762 41.888C65.9282 42.548 65.3522 42.884 64.5482 42.884C64.0562 42.884 63.6242 42.728 63.2522 42.416C62.8802 42.092 62.6882 41.696 62.6762 41.216H67.5362ZM64.4402 38.684C65.3522 38.684 66.0602 39.236 66.1082 40.136H62.7482C62.8802 39.26 63.5642 38.684 64.4402 38.684ZM72.5311 37.568C72.4471 37.544 72.3391 37.532 72.1831 37.532C71.4031 37.532 70.8151 37.892 70.4191 38.612V37.592H69.0271V44H70.4551V40.748C70.4551 39.632 71.0311 38.996 72.1231 38.996C72.2791 38.996 72.4111 39.008 72.5311 39.032V37.568ZM75.814 44.108C76.534 44.108 77.122 43.928 77.566 43.556C78.01 43.184 78.238 42.704 78.238 42.116C78.238 41.12 77.47 40.424 76.018 40.1C75.19 39.92 74.83 39.704 74.83 39.284C74.83 38.936 75.286 38.66 75.73 38.66C76.342 38.66 76.786 38.948 77.074 39.524L78.178 38.9C77.734 37.94 76.93 37.46 75.778 37.46C75.154 37.46 74.614 37.64 74.146 38.012C73.678 38.384 73.45 38.852 73.45 39.428C73.45 39.884 73.606 40.268 73.906 40.592C74.254 40.964 74.794 41.216 75.502 41.36C76.378 41.54 76.822 41.828 76.822 42.2C76.822 42.632 76.354 42.908 75.814 42.908C75.13 42.908 74.626 42.56 74.278 41.876L73.162 42.5C73.654 43.568 74.542 44.108 75.814 44.108ZM82.7134 37.46C81.7774 37.46 80.9734 37.784 80.3134 38.42C79.6534 39.056 79.3174 39.848 79.3174 40.784C79.3174 41.72 79.6414 42.512 80.3014 43.148C80.9614 43.784 81.7654 44.108 82.7014 44.108C83.6494 44.108 84.4414 43.784 85.0894 43.148C85.7494 42.5 86.0734 41.708 86.0734 40.76C86.0734 39.824 85.7494 39.044 85.0894 38.408C84.4294 37.772 83.6374 37.46 82.7134 37.46ZM81.3094 39.344C81.6694 38.948 82.1374 38.756 82.7014 38.756C83.2654 38.756 83.7334 38.948 84.0814 39.344C84.4414 39.74 84.6214 40.22 84.6214 40.784C84.6214 41.348 84.4414 41.828 84.0934 42.224C83.7454 42.62 83.2774 42.812 82.7134 42.812C82.1494 42.812 81.6814 42.608 81.3214 42.212C80.9614 41.804 80.7814 41.324 80.7814 40.76C80.7814 40.196 80.9614 39.728 81.3094 39.344ZM91.2261 39.656C91.2261 40.016 91.0221 40.196 90.6261 40.196H89.8341C88.7061 40.196 87.1701 40.664 87.1701 42.152V42.224C87.1701 42.776 87.3741 43.232 87.7821 43.58C88.1901 43.928 88.7061 44.108 89.3301 44.108C90.1941 44.108 90.8181 43.784 91.2141 43.124V44H92.6181V39.92C92.6181 39.476 92.5461 39.092 92.4021 38.768C92.0061 37.892 91.2021 37.46 90.0021 37.46C88.6941 37.46 87.7821 38 87.2781 39.092L88.3701 39.716C88.6941 39.032 89.2341 38.696 89.9661 38.696C90.7701 38.696 91.2261 39.128 91.2261 39.656ZM91.2141 41.408C91.2141 42.368 90.5901 42.968 89.6181 42.968C89.0061 42.968 88.5981 42.62 88.5981 42.092C88.5981 41.816 88.7301 41.6 88.9821 41.444C89.2461 41.288 89.5341 41.204 89.8341 41.204H91.2141V41.408ZM100.216 44V40.052C100.216 38.516 99.3885 37.46 97.8165 37.46C97.0005 37.46 96.3525 37.796 95.8605 38.456V37.592H94.4685V44H95.8965V40.436C95.8965 39.464 96.4725 38.816 97.3725 38.816C98.3205 38.816 98.7885 39.452 98.7885 40.412V44H100.216ZM102.062 44H103.49V34.232H102.062V44ZM108.806 44H110.282V34.604H108.806V44ZM118.181 44V40.052C118.181 38.516 117.353 37.46 115.781 37.46C114.965 37.46 114.317 37.796 113.825 38.456V37.592H112.433V44H113.861V40.436C113.861 39.464 114.437 38.816 115.337 38.816C116.285 38.816 116.753 39.452 116.753 40.412V44H118.181ZM123.747 34.292C123.519 34.232 123.303 34.196 123.087 34.196C121.515 34.196 120.567 35.108 120.567 36.692V37.592H119.391V38.852H120.567V44H122.007V38.852H123.711V37.592H122.007V36.74C122.007 35.888 122.415 35.468 123.231 35.468C123.435 35.468 123.603 35.48 123.747 35.516V34.292ZM127.713 37.46C126.777 37.46 125.973 37.784 125.313 38.42C124.653 39.056 124.317 39.848 124.317 40.784C124.317 41.72 124.641 42.512 125.301 43.148C125.961 43.784 126.765 44.108 127.701 44.108C128.649 44.108 129.441 43.784 130.089 43.148C130.749 42.5 131.073 41.708 131.073 40.76C131.073 39.824 130.749 39.044 130.089 38.408C129.429 37.772 128.637 37.46 127.713 37.46ZM126.309 39.344C126.669 38.948 127.137 38.756 127.701 38.756C128.265 38.756 128.733 38.948 129.081 39.344C129.441 39.74 129.621 40.22 129.621 40.784C129.621 41.348 129.441 41.828 129.093 42.224C128.745 42.62 128.277 42.812 127.713 42.812C127.149 42.812 126.681 42.608 126.321 42.212C125.961 41.804 125.781 41.324 125.781 40.76C125.781 40.196 125.961 39.728 126.309 39.344Z" fill="#4F5E71"/>
<g clip-path="url(#clip0_803_3006)">
<rect x="184.333" y="14" width="184" height="2" fill="#1692AD"/>
</g>
<circle cx="276.333" cy="15" r="10" fill="#1692AD"/>
<path d="M272.466 18H279.078V16.668H274.554L276.738 14.856C277.566 14.172 278.154 13.584 278.502 13.092C278.85 12.588 279.03 11.988 279.03 11.304C279.03 10.464 278.73 9.78 278.13 9.264C277.53 8.736 276.762 8.472 275.838 8.472C275.034 8.472 274.338 8.676 273.75 9.096C273.174 9.516 272.79 10.068 272.598 10.752L273.918 11.304C274.29 10.32 274.926 9.828 275.826 9.828C276.87 9.828 277.506 10.512 277.506 11.412C277.506 11.832 277.386 12.204 277.146 12.54C276.906 12.864 276.462 13.308 275.826 13.848L272.466 16.716V18Z" fill="white"/>
<path d="M246.547 35.972H249.523V44H250.999V35.972H253.987V34.604H246.547V35.972ZM257.521 37.568C257.437 37.544 257.329 37.532 257.173 37.532C256.393 37.532 255.805 37.892 255.409 38.612V37.592H254.017V44H255.445V40.748C255.445 39.632 256.021 38.996 257.113 38.996C257.269 38.996 257.401 39.008 257.521 39.032V37.568ZM258.656 37.592V41.528C258.656 43.064 259.508 44.132 261.056 44.132C261.872 44.132 262.52 43.796 263.012 43.136V44H264.404V37.592H262.976V41.156C262.976 42.128 262.4 42.776 261.5 42.776C260.552 42.776 260.084 42.14 260.084 41.18V37.592H258.656ZM269.225 44.108C270.005 44.108 270.641 43.916 271.133 43.532C271.625 43.148 271.973 42.692 272.153 42.176L270.905 41.624C270.605 42.416 270.053 42.812 269.249 42.812C268.709 42.812 268.253 42.62 267.893 42.236C267.533 41.852 267.353 41.36 267.353 40.76C267.353 40.172 267.533 39.692 267.893 39.32C268.265 38.948 268.709 38.756 269.237 38.756C270.053 38.756 270.605 39.152 270.881 39.932L272.105 39.38C271.721 38.24 270.665 37.46 269.225 37.46C268.277 37.46 267.485 37.784 266.849 38.444C266.213 39.104 265.889 39.884 265.889 40.784C265.889 41.732 266.213 42.524 266.849 43.16C267.485 43.796 268.277 44.108 269.225 44.108ZM273.529 44H274.957V40.868H274.993L277.669 44H279.553L276.505 40.496L279.397 37.592H277.453L274.969 40.112H274.957V34.232H273.529V44ZM283.894 44H285.37V34.604H283.894V44ZM293.269 44V40.052C293.269 38.516 292.441 37.46 290.869 37.46C290.053 37.46 289.405 37.796 288.913 38.456V37.592H287.521V44H288.949V40.436C288.949 39.464 289.525 38.816 290.425 38.816C291.373 38.816 291.841 39.452 291.841 40.412V44H293.269ZM298.834 34.292C298.606 34.232 298.39 34.196 298.174 34.196C296.602 34.196 295.654 35.108 295.654 36.692V37.592H294.478V38.852H295.654V44H297.094V38.852H298.798V37.592H297.094V36.74C297.094 35.888 297.502 35.468 298.318 35.468C298.522 35.468 298.69 35.48 298.834 35.516V34.292ZM302.801 37.46C301.865 37.46 301.061 37.784 300.401 38.42C299.741 39.056 299.405 39.848 299.405 40.784C299.405 41.72 299.729 42.512 300.389 43.148C301.049 43.784 301.853 44.108 302.789 44.108C303.737 44.108 304.529 43.784 305.177 43.148C305.837 42.5 306.161 41.708 306.161 40.76C306.161 39.824 305.837 39.044 305.177 38.408C304.517 37.772 303.725 37.46 302.801 37.46ZM301.397 39.344C301.757 38.948 302.225 38.756 302.789 38.756C303.353 38.756 303.821 38.948 304.169 39.344C304.529 39.74 304.709 40.22 304.709 40.784C304.709 41.348 304.529 41.828 304.181 42.224C303.833 42.62 303.365 42.812 302.801 42.812C302.237 42.812 301.769 42.608 301.409 42.212C301.049 41.804 300.869 41.324 300.869 40.76C300.869 40.196 301.049 39.728 301.397 39.344Z" fill="#4F5E71"/>
<g clip-path="url(#clip1_803_3006)">
<rect x="368.667" y="14" width="92" height="2" fill="#1692AD"/>
<rect x="460.667" y="14" width="92" height="2" fill="#1692AD"/>
</g>
<circle cx="460.667" cy="15" r="10" fill="#1692AD"/>
<circle cx="460.667" cy="15" r="12.5" stroke="#1692AD" stroke-opacity="0.3" stroke-width="5"/>
<path d="M463.386 15.36C463.386 14.304 462.846 13.572 461.766 13.152V13.14C462.714 12.684 463.182 11.964 463.182 10.992C463.182 10.284 462.894 9.696 462.33 9.204C461.766 8.712 460.998 8.472 460.038 8.472C458.442 8.472 457.326 9.336 456.894 10.584L458.178 11.172C458.562 10.272 459.174 9.816 460.014 9.816C461.07 9.816 461.682 10.38 461.682 11.148C461.682 11.532 461.526 11.868 461.202 12.144C460.89 12.42 460.494 12.552 460.014 12.552H459.09V13.884H460.098C460.614 13.884 461.034 14.028 461.358 14.316C461.694 14.592 461.862 14.94 461.862 15.336C461.862 15.72 461.694 16.056 461.346 16.344C460.998 16.62 460.578 16.764 460.074 16.764C459.126 16.764 458.442 16.296 458.034 15.372L456.762 15.996C457.326 17.4 458.418 18.108 460.05 18.108C461.022 18.108 461.814 17.844 462.438 17.316C463.074 16.776 463.386 16.128 463.386 15.36Z" fill="white"/>
<path d="M408.093 35.972H411.069V44H412.545V35.972H415.533V34.604H408.093V35.972ZM419.067 37.568C418.983 37.544 418.875 37.532 418.719 37.532C417.939 37.532 417.351 37.892 416.955 38.612V37.592H415.563V44H416.991V40.748C416.991 39.632 417.567 38.996 418.659 38.996C418.815 38.996 418.947 39.008 419.067 39.032V37.568ZM420.202 37.592V41.528C420.202 43.064 421.054 44.132 422.602 44.132C423.418 44.132 424.066 43.796 424.558 43.136V44H425.95V37.592H424.522V41.156C424.522 42.128 423.946 42.776 423.046 42.776C422.098 42.776 421.63 42.14 421.63 41.18V37.592H420.202ZM430.771 44.108C431.551 44.108 432.187 43.916 432.679 43.532C433.171 43.148 433.519 42.692 433.699 42.176L432.451 41.624C432.151 42.416 431.599 42.812 430.795 42.812C430.255 42.812 429.799 42.62 429.439 42.236C429.079 41.852 428.899 41.36 428.899 40.76C428.899 40.172 429.079 39.692 429.439 39.32C429.811 38.948 430.255 38.756 430.783 38.756C431.599 38.756 432.151 39.152 432.427 39.932L433.651 39.38C433.267 38.24 432.211 37.46 430.771 37.46C429.823 37.46 429.031 37.784 428.395 38.444C427.759 39.104 427.435 39.884 427.435 40.784C427.435 41.732 427.759 42.524 428.395 43.16C429.031 43.796 429.823 44.108 430.771 44.108ZM435.074 44H436.502V40.868H436.538L439.214 44H441.098L438.05 40.496L440.942 37.592H438.998L436.514 40.112H436.502V34.232H435.074V44ZM448.556 42.296L445.76 34.604H444.116L447.68 44H449.384L452.936 34.604H451.376L448.556 42.296ZM459.224 41.216C459.236 41.108 459.248 40.964 459.248 40.772C459.248 39.776 458.972 38.984 458.42 38.372C457.868 37.76 457.1 37.46 456.128 37.46C455.204 37.46 454.436 37.784 453.824 38.432C453.212 39.08 452.9 39.86 452.9 40.784C452.9 41.732 453.224 42.536 453.86 43.172C454.508 43.808 455.312 44.12 456.26 44.12C457.412 44.12 458.456 43.568 458.996 42.572L457.964 41.888C457.616 42.548 457.04 42.884 456.236 42.884C455.744 42.884 455.312 42.728 454.94 42.416C454.568 42.092 454.376 41.696 454.364 41.216H459.224ZM456.128 38.684C457.04 38.684 457.748 39.236 457.796 40.136H454.436C454.568 39.26 455.252 38.684 456.128 38.684ZM464.219 37.568C464.135 37.544 464.027 37.532 463.871 37.532C463.091 37.532 462.503 37.892 462.107 38.612V37.592H460.715V44H462.143V40.748C462.143 39.632 462.719 38.996 463.811 38.996C463.967 38.996 464.099 39.008 464.219 39.032V37.568ZM465.474 36.176C465.846 36.548 466.422 36.548 466.794 36.176C467.166 35.804 467.166 35.228 466.794 34.856C466.422 34.472 465.846 34.472 465.474 34.856C465.102 35.228 465.102 35.804 465.474 36.176ZM466.854 37.592H465.426V44H466.854V37.592ZM470.746 37.592V36.74C470.746 35.888 471.154 35.468 471.97 35.468C472.174 35.468 472.342 35.48 472.486 35.516V34.292C472.258 34.232 472.042 34.196 471.826 34.196C470.254 34.196 469.306 35.108 469.306 36.692V37.592H468.13V38.852H469.306V44H470.746V38.852H473.638V44H475.078V37.592H470.746ZM474.346 36.452C474.874 36.452 475.306 36.032 475.306 35.516C475.306 35 474.874 34.568 474.346 34.568C473.854 34.568 473.422 35 473.422 35.516C473.422 36.032 473.83 36.452 474.346 36.452ZM479.896 44.108C480.676 44.108 481.312 43.916 481.804 43.532C482.296 43.148 482.644 42.692 482.824 42.176L481.576 41.624C481.276 42.416 480.724 42.812 479.92 42.812C479.38 42.812 478.924 42.62 478.564 42.236C478.204 41.852 478.024 41.36 478.024 40.76C478.024 40.172 478.204 39.692 478.564 39.32C478.936 38.948 479.38 38.756 479.908 38.756C480.724 38.756 481.276 39.152 481.552 39.932L482.776 39.38C482.392 38.24 481.336 37.46 479.896 37.46C478.948 37.46 478.156 37.784 477.52 38.444C476.884 39.104 476.56 39.884 476.56 40.784C476.56 41.732 476.884 42.524 477.52 43.16C478.156 43.796 478.948 44.108 479.896 44.108ZM487.859 39.656C487.859 40.016 487.655 40.196 487.259 40.196H486.467C485.339 40.196 483.803 40.664 483.803 42.152V42.224C483.803 42.776 484.007 43.232 484.415 43.58C484.823 43.928 485.339 44.108 485.963 44.108C486.827 44.108 487.451 43.784 487.847 43.124V44H489.251V39.92C489.251 39.476 489.179 39.092 489.035 38.768C488.639 37.892 487.835 37.46 486.635 37.46C485.327 37.46 484.415 38 483.911 39.092L485.003 39.716C485.327 39.032 485.867 38.696 486.599 38.696C487.403 38.696 487.859 39.128 487.859 39.656ZM487.847 41.408C487.847 42.368 487.223 42.968 486.251 42.968C485.639 42.968 485.231 42.62 485.231 42.092C485.231 41.816 485.363 41.6 485.615 41.444C485.879 41.288 486.167 41.204 486.467 41.204H487.847V41.408ZM494.535 38.876V37.592H492.963V35.612H491.535V37.592H490.359V38.876H491.535V41.936C491.535 43.328 492.351 44.072 493.755 44.072C494.031 44.072 494.295 44.024 494.523 43.94V42.728C494.367 42.764 494.211 42.776 494.067 42.776C493.335 42.776 492.963 42.476 492.963 41.708V38.876H494.535ZM496.083 36.176C496.455 36.548 497.031 36.548 497.403 36.176C497.775 35.804 497.775 35.228 497.403 34.856C497.031 34.472 496.455 34.472 496.083 34.856C495.711 35.228 495.711 35.804 496.083 36.176ZM497.463 37.592H496.035V44H497.463V37.592ZM502.327 37.46C501.391 37.46 500.587 37.784 499.927 38.42C499.267 39.056 498.931 39.848 498.931 40.784C498.931 41.72 499.255 42.512 499.915 43.148C500.575 43.784 501.379 44.108 502.315 44.108C503.263 44.108 504.055 43.784 504.703 43.148C505.363 42.5 505.687 41.708 505.687 40.76C505.687 39.824 505.363 39.044 504.703 38.408C504.043 37.772 503.251 37.46 502.327 37.46ZM500.923 39.344C501.283 38.948 501.751 38.756 502.315 38.756C502.879 38.756 503.347 38.948 503.695 39.344C504.055 39.74 504.235 40.22 504.235 40.784C504.235 41.348 504.055 41.828 503.707 42.224C503.359 42.62 502.891 42.812 502.327 42.812C501.763 42.812 501.295 42.608 500.935 42.212C500.575 41.804 500.395 41.324 500.395 40.76C500.395 40.196 500.575 39.728 500.923 39.344ZM512.928 44V40.052C512.928 38.516 512.1 37.46 510.528 37.46C509.712 37.46 509.064 37.796 508.572 38.456V37.592H507.18V44H508.608V40.436C508.608 39.464 509.184 38.816 510.084 38.816C511.032 38.816 511.5 39.452 511.5 40.412V44H512.928Z" fill="#252A31"/>
<defs>
<clipPath id="clip0_803_3006">
<path d="M184.333 14H367.333C367.886 14 368.333 14.4477 368.333 15C368.333 15.5523 367.886 16 367.333 16H184.333V14Z" fill="white"/>
</clipPath>
<clipPath id="clip1_803_3006">
<path d="M368.667 15C368.667 14.4477 369.114 14 369.667 14H552.667V16H369.667C369.114 16 368.667 15.5523 368.667 15Z" fill="white"/>
</clipPath>
</defs>
</svg>
