<svg width="553" height="47" viewBox="0 0 553 47" fill="none" xmlns="http://www.w3.org/2000/svg">
<rect y="12" width="184" height="2" fill="#1692AD"/>
<circle cx="92" cy="13" r="10" fill="#1692AD"/>
<path d="M88.8125 8.332L89.4965 9.46L91.6085 8.188V16H93.0845V6.604H91.6805L88.8125 8.332Z" fill="white"/>
<path d="M60.5392 35.52C60.5392 34.716 60.2632 34.02 59.7112 33.456C59.1712 32.892 58.3432 32.604 57.2512 32.604H53.9272V42H55.4032V38.52H57.0712C58.1632 38.52 59.0032 38.232 59.6152 37.668C60.2272 37.092 60.5392 36.372 60.5392 35.52ZM57.1192 33.972C57.8152 33.972 58.3072 34.128 58.5952 34.44C58.8952 34.752 59.0392 35.124 59.0392 35.556C59.0392 36.42 58.4272 37.164 57.1192 37.164H55.4032V33.972H57.1192ZM67.5362 39.216C67.5482 39.108 67.5602 38.964 67.5602 38.772C67.5602 37.776 67.2842 36.984 66.7322 36.372C66.1802 35.76 65.4122 35.46 64.4402 35.46C63.5162 35.46 62.7482 35.784 62.1362 36.432C61.5242 37.08 61.2122 37.86 61.2122 38.784C61.2122 39.732 61.5362 40.536 62.1722 41.172C62.8202 41.808 63.6242 42.12 64.5722 42.12C65.7242 42.12 66.7682 41.568 67.3082 40.572L66.2762 39.888C65.9282 40.548 65.3522 40.884 64.5482 40.884C64.0562 40.884 63.6242 40.728 63.2522 40.416C62.8802 40.092 62.6882 39.696 62.6762 39.216H67.5362ZM64.4402 36.684C65.3522 36.684 66.0602 37.236 66.1082 38.136H62.7482C62.8802 37.26 63.5642 36.684 64.4402 36.684ZM72.5311 35.568C72.4471 35.544 72.3391 35.532 72.1831 35.532C71.4031 35.532 70.8151 35.892 70.4191 36.612V35.592H69.0271V42H70.4551V38.748C70.4551 37.632 71.0311 36.996 72.1231 36.996C72.2791 36.996 72.4111 37.008 72.5311 37.032V35.568ZM75.814 42.108C76.534 42.108 77.122 41.928 77.566 41.556C78.01 41.184 78.238 40.704 78.238 40.116C78.238 39.12 77.47 38.424 76.018 38.1C75.19 37.92 74.83 37.704 74.83 37.284C74.83 36.936 75.286 36.66 75.73 36.66C76.342 36.66 76.786 36.948 77.074 37.524L78.178 36.9C77.734 35.94 76.93 35.46 75.778 35.46C75.154 35.46 74.614 35.64 74.146 36.012C73.678 36.384 73.45 36.852 73.45 37.428C73.45 37.884 73.606 38.268 73.906 38.592C74.254 38.964 74.794 39.216 75.502 39.36C76.378 39.54 76.822 39.828 76.822 40.2C76.822 40.632 76.354 40.908 75.814 40.908C75.13 40.908 74.626 40.56 74.278 39.876L73.162 40.5C73.654 41.568 74.542 42.108 75.814 42.108ZM82.7134 35.46C81.7774 35.46 80.9734 35.784 80.3134 36.42C79.6534 37.056 79.3174 37.848 79.3174 38.784C79.3174 39.72 79.6414 40.512 80.3014 41.148C80.9614 41.784 81.7654 42.108 82.7014 42.108C83.6494 42.108 84.4414 41.784 85.0894 41.148C85.7494 40.5 86.0734 39.708 86.0734 38.76C86.0734 37.824 85.7494 37.044 85.0894 36.408C84.4294 35.772 83.6374 35.46 82.7134 35.46ZM81.3094 37.344C81.6694 36.948 82.1374 36.756 82.7014 36.756C83.2654 36.756 83.7334 36.948 84.0814 37.344C84.4414 37.74 84.6214 38.22 84.6214 38.784C84.6214 39.348 84.4414 39.828 84.0934 40.224C83.7454 40.62 83.2774 40.812 82.7134 40.812C82.1494 40.812 81.6814 40.608 81.3214 40.212C80.9614 39.804 80.7814 39.324 80.7814 38.76C80.7814 38.196 80.9614 37.728 81.3094 37.344ZM93.3141 42V38.052C93.3141 36.516 92.4861 35.46 90.9141 35.46C90.0981 35.46 89.4501 35.796 88.9581 36.456V35.592H87.5661V42H88.9941V38.436C88.9941 37.464 89.5701 36.816 90.4701 36.816C91.4181 36.816 91.8861 37.452 91.8861 38.412V42H93.3141ZM98.8199 37.656C98.8199 38.016 98.6159 38.196 98.2199 38.196H97.4279C96.2999 38.196 94.7639 38.664 94.7639 40.152V40.224C94.7639 40.776 94.9679 41.232 95.3759 41.58C95.7839 41.928 96.2999 42.108 96.9239 42.108C97.7879 42.108 98.4119 41.784 98.8079 41.124V42H100.212V37.92C100.212 37.476 100.14 37.092 99.9959 36.768C99.5999 35.892 98.7959 35.46 97.5959 35.46C96.2879 35.46 95.3759 36 94.8719 37.092L95.9639 37.716C96.2879 37.032 96.8279 36.696 97.5599 36.696C98.3639 36.696 98.8199 37.128 98.8199 37.656ZM98.8079 39.408C98.8079 40.368 98.1839 40.968 97.2119 40.968C96.5999 40.968 96.1919 40.62 96.1919 40.092C96.1919 39.816 96.3239 39.6 96.5759 39.444C96.8399 39.288 97.1279 39.204 97.4279 39.204H98.8079V39.408ZM102.062 42H103.49V32.232H102.062V42ZM108.806 42H110.282V32.604H108.806V42ZM118.181 42V38.052C118.181 36.516 117.353 35.46 115.781 35.46C114.965 35.46 114.317 35.796 113.825 36.456V35.592H112.433V42H113.861V38.436C113.861 37.464 114.437 36.816 115.337 36.816C116.285 36.816 116.753 37.452 116.753 38.412V42H118.181ZM123.747 32.292C123.519 32.232 123.303 32.196 123.087 32.196C121.515 32.196 120.567 33.108 120.567 34.692V35.592H119.391V36.852H120.567V42H122.007V36.852H123.711V35.592H122.007V34.74C122.007 33.888 122.415 33.468 123.231 33.468C123.435 33.468 123.603 33.48 123.747 33.516V32.292ZM127.713 35.46C126.777 35.46 125.973 35.784 125.313 36.42C124.653 37.056 124.317 37.848 124.317 38.784C124.317 39.72 124.641 40.512 125.301 41.148C125.961 41.784 126.765 42.108 127.701 42.108C128.649 42.108 129.441 41.784 130.089 41.148C130.749 40.5 131.073 39.708 131.073 38.76C131.073 37.824 130.749 37.044 130.089 36.408C129.429 35.772 128.637 35.46 127.713 35.46ZM126.309 37.344C126.669 36.948 127.137 36.756 127.701 36.756C128.265 36.756 128.733 36.948 129.081 37.344C129.441 37.74 129.621 38.22 129.621 38.784C129.621 39.348 129.441 39.828 129.093 40.224C128.745 40.62 128.277 40.812 127.713 40.812C127.149 40.812 126.681 40.608 126.321 40.212C125.961 39.804 125.781 39.324 125.781 38.76C125.781 38.196 125.961 37.728 126.309 37.344Z" fill="#4F5E71"/>
<g clip-path="url(#clip0_803_2976)">
<rect x="184.333" y="12" width="92" height="2" fill="#1692AD"/>
<rect x="276.333" y="12" width="92" height="2" fill="#D3D7D8"/>
</g>
<circle cx="276.333" cy="13" r="10" fill="#1692AD"/>
<circle cx="276.333" cy="13" r="11.5" stroke="#1692AD" stroke-opacity="0.3" stroke-width="3"/>
<path d="M272.466 16H279.078V14.668H274.554L276.738 12.856C277.566 12.172 278.154 11.584 278.502 11.092C278.85 10.588 279.03 9.988 279.03 9.304C279.03 8.464 278.73 7.78 278.13 7.264C277.53 6.736 276.762 6.472 275.838 6.472C275.034 6.472 274.338 6.676 273.75 7.096C273.174 7.516 272.79 8.068 272.598 8.752L273.918 9.304C274.29 8.32 274.926 7.828 275.826 7.828C276.87 7.828 277.506 8.512 277.506 9.412C277.506 9.832 277.386 10.204 277.146 10.54C276.906 10.864 276.462 11.308 275.826 11.848L272.466 14.716V16Z" fill="white"/>
<path d="M246.547 33.972H249.523V42H250.999V33.972H253.987V32.604H246.547V33.972ZM257.521 35.568C257.437 35.544 257.329 35.532 257.173 35.532C256.393 35.532 255.805 35.892 255.409 36.612V35.592H254.017V42H255.445V38.748C255.445 37.632 256.021 36.996 257.113 36.996C257.269 36.996 257.401 37.008 257.521 37.032V35.568ZM258.656 35.592V39.528C258.656 41.064 259.508 42.132 261.056 42.132C261.872 42.132 262.52 41.796 263.012 41.136V42H264.404V35.592H262.976V39.156C262.976 40.128 262.4 40.776 261.5 40.776C260.552 40.776 260.084 40.14 260.084 39.18V35.592H258.656ZM269.225 42.108C270.005 42.108 270.641 41.916 271.133 41.532C271.625 41.148 271.973 40.692 272.153 40.176L270.905 39.624C270.605 40.416 270.053 40.812 269.249 40.812C268.709 40.812 268.253 40.62 267.893 40.236C267.533 39.852 267.353 39.36 267.353 38.76C267.353 38.172 267.533 37.692 267.893 37.32C268.265 36.948 268.709 36.756 269.237 36.756C270.053 36.756 270.605 37.152 270.881 37.932L272.105 37.38C271.721 36.24 270.665 35.46 269.225 35.46C268.277 35.46 267.485 35.784 266.849 36.444C266.213 37.104 265.889 37.884 265.889 38.784C265.889 39.732 266.213 40.524 266.849 41.16C267.485 41.796 268.277 42.108 269.225 42.108ZM273.529 42H274.957V38.868H274.993L277.669 42H279.553L276.505 38.496L279.397 35.592H277.453L274.969 38.112H274.957V32.232H273.529V42ZM283.894 42H285.37V32.604H283.894V42ZM293.269 42V38.052C293.269 36.516 292.441 35.46 290.869 35.46C290.053 35.46 289.405 35.796 288.913 36.456V35.592H287.521V42H288.949V38.436C288.949 37.464 289.525 36.816 290.425 36.816C291.373 36.816 291.841 37.452 291.841 38.412V42H293.269ZM298.834 32.292C298.606 32.232 298.39 32.196 298.174 32.196C296.602 32.196 295.654 33.108 295.654 34.692V35.592H294.478V36.852H295.654V42H297.094V36.852H298.798V35.592H297.094V34.74C297.094 33.888 297.502 33.468 298.318 33.468C298.522 33.468 298.69 33.48 298.834 33.516V32.292ZM302.801 35.46C301.865 35.46 301.061 35.784 300.401 36.42C299.741 37.056 299.405 37.848 299.405 38.784C299.405 39.72 299.729 40.512 300.389 41.148C301.049 41.784 301.853 42.108 302.789 42.108C303.737 42.108 304.529 41.784 305.177 41.148C305.837 40.5 306.161 39.708 306.161 38.76C306.161 37.824 305.837 37.044 305.177 36.408C304.517 35.772 303.725 35.46 302.801 35.46ZM301.397 37.344C301.757 36.948 302.225 36.756 302.789 36.756C303.353 36.756 303.821 36.948 304.169 37.344C304.529 37.74 304.709 38.22 304.709 38.784C304.709 39.348 304.529 39.828 304.181 40.224C303.833 40.62 303.365 40.812 302.801 40.812C302.237 40.812 301.769 40.608 301.409 40.212C301.049 39.804 300.869 39.324 300.869 38.76C300.869 38.196 301.049 37.728 301.397 37.344Z" fill="#252A31"/>
<g clip-path="url(#clip1_803_2976)">
<rect x="368.667" y="12" width="184" height="2" fill="#D3D7D8"/>
</g>
<circle cx="460.667" cy="13" r="10" fill="#D3D7D8"/>
<path d="M463.386 13.36C463.386 12.304 462.846 11.572 461.766 11.152V11.14C462.714 10.684 463.182 9.964 463.182 8.992C463.182 8.284 462.894 7.696 462.33 7.204C461.766 6.712 460.998 6.472 460.038 6.472C458.442 6.472 457.326 7.336 456.894 8.584L458.178 9.172C458.562 8.272 459.174 7.816 460.014 7.816C461.07 7.816 461.682 8.38 461.682 9.148C461.682 9.532 461.526 9.868 461.202 10.144C460.89 10.42 460.494 10.552 460.014 10.552H459.09V11.884H460.098C460.614 11.884 461.034 12.028 461.358 12.316C461.694 12.592 461.862 12.94 461.862 13.336C461.862 13.72 461.694 14.056 461.346 14.344C460.998 14.62 460.578 14.764 460.074 14.764C459.126 14.764 458.442 14.296 458.034 13.372L456.762 13.996C457.326 15.4 458.418 16.108 460.05 16.108C461.022 16.108 461.814 15.844 462.438 15.316C463.074 14.776 463.386 14.128 463.386 13.36Z" fill="#252A31"/>
<path d="M408.093 33.972H411.069V42H412.545V33.972H415.533V32.604H408.093V33.972ZM419.067 35.568C418.983 35.544 418.875 35.532 418.719 35.532C417.939 35.532 417.351 35.892 416.955 36.612V35.592H415.563V42H416.991V38.748C416.991 37.632 417.567 36.996 418.659 36.996C418.815 36.996 418.947 37.008 419.067 37.032V35.568ZM420.202 35.592V39.528C420.202 41.064 421.054 42.132 422.602 42.132C423.418 42.132 424.066 41.796 424.558 41.136V42H425.95V35.592H424.522V39.156C424.522 40.128 423.946 40.776 423.046 40.776C422.098 40.776 421.63 40.14 421.63 39.18V35.592H420.202ZM430.771 42.108C431.551 42.108 432.187 41.916 432.679 41.532C433.171 41.148 433.519 40.692 433.699 40.176L432.451 39.624C432.151 40.416 431.599 40.812 430.795 40.812C430.255 40.812 429.799 40.62 429.439 40.236C429.079 39.852 428.899 39.36 428.899 38.76C428.899 38.172 429.079 37.692 429.439 37.32C429.811 36.948 430.255 36.756 430.783 36.756C431.599 36.756 432.151 37.152 432.427 37.932L433.651 37.38C433.267 36.24 432.211 35.46 430.771 35.46C429.823 35.46 429.031 35.784 428.395 36.444C427.759 37.104 427.435 37.884 427.435 38.784C427.435 39.732 427.759 40.524 428.395 41.16C429.031 41.796 429.823 42.108 430.771 42.108ZM435.074 42H436.502V38.868H436.538L439.214 42H441.098L438.05 38.496L440.942 35.592H438.998L436.514 38.112H436.502V32.232H435.074V42ZM448.556 40.296L445.76 32.604H444.116L447.68 42H449.384L452.936 32.604H451.376L448.556 40.296ZM459.224 39.216C459.236 39.108 459.248 38.964 459.248 38.772C459.248 37.776 458.972 36.984 458.42 36.372C457.868 35.76 457.1 35.46 456.128 35.46C455.204 35.46 454.436 35.784 453.824 36.432C453.212 37.08 452.9 37.86 452.9 38.784C452.9 39.732 453.224 40.536 453.86 41.172C454.508 41.808 455.312 42.12 456.26 42.12C457.412 42.12 458.456 41.568 458.996 40.572L457.964 39.888C457.616 40.548 457.04 40.884 456.236 40.884C455.744 40.884 455.312 40.728 454.94 40.416C454.568 40.092 454.376 39.696 454.364 39.216H459.224ZM456.128 36.684C457.04 36.684 457.748 37.236 457.796 38.136H454.436C454.568 37.26 455.252 36.684 456.128 36.684ZM464.219 35.568C464.135 35.544 464.027 35.532 463.871 35.532C463.091 35.532 462.503 35.892 462.107 36.612V35.592H460.715V42H462.143V38.748C462.143 37.632 462.719 36.996 463.811 36.996C463.967 36.996 464.099 37.008 464.219 37.032V35.568ZM465.474 34.176C465.846 34.548 466.422 34.548 466.794 34.176C467.166 33.804 467.166 33.228 466.794 32.856C466.422 32.472 465.846 32.472 465.474 32.856C465.102 33.228 465.102 33.804 465.474 34.176ZM466.854 35.592H465.426V42H466.854V35.592ZM470.746 35.592V34.74C470.746 33.888 471.154 33.468 471.97 33.468C472.174 33.468 472.342 33.48 472.486 33.516V32.292C472.258 32.232 472.042 32.196 471.826 32.196C470.254 32.196 469.306 33.108 469.306 34.692V35.592H468.13V36.852H469.306V42H470.746V36.852H473.638V42H475.078V35.592H470.746ZM474.346 34.452C474.874 34.452 475.306 34.032 475.306 33.516C475.306 33 474.874 32.568 474.346 32.568C473.854 32.568 473.422 33 473.422 33.516C473.422 34.032 473.83 34.452 474.346 34.452ZM479.896 42.108C480.676 42.108 481.312 41.916 481.804 41.532C482.296 41.148 482.644 40.692 482.824 40.176L481.576 39.624C481.276 40.416 480.724 40.812 479.92 40.812C479.38 40.812 478.924 40.62 478.564 40.236C478.204 39.852 478.024 39.36 478.024 38.76C478.024 38.172 478.204 37.692 478.564 37.32C478.936 36.948 479.38 36.756 479.908 36.756C480.724 36.756 481.276 37.152 481.552 37.932L482.776 37.38C482.392 36.24 481.336 35.46 479.896 35.46C478.948 35.46 478.156 35.784 477.52 36.444C476.884 37.104 476.56 37.884 476.56 38.784C476.56 39.732 476.884 40.524 477.52 41.16C478.156 41.796 478.948 42.108 479.896 42.108ZM487.859 37.656C487.859 38.016 487.655 38.196 487.259 38.196H486.467C485.339 38.196 483.803 38.664 483.803 40.152V40.224C483.803 40.776 484.007 41.232 484.415 41.58C484.823 41.928 485.339 42.108 485.963 42.108C486.827 42.108 487.451 41.784 487.847 41.124V42H489.251V37.92C489.251 37.476 489.179 37.092 489.035 36.768C488.639 35.892 487.835 35.46 486.635 35.46C485.327 35.46 484.415 36 483.911 37.092L485.003 37.716C485.327 37.032 485.867 36.696 486.599 36.696C487.403 36.696 487.859 37.128 487.859 37.656ZM487.847 39.408C487.847 40.368 487.223 40.968 486.251 40.968C485.639 40.968 485.231 40.62 485.231 40.092C485.231 39.816 485.363 39.6 485.615 39.444C485.879 39.288 486.167 39.204 486.467 39.204H487.847V39.408ZM494.535 36.876V35.592H492.963V33.612H491.535V35.592H490.359V36.876H491.535V39.936C491.535 41.328 492.351 42.072 493.755 42.072C494.031 42.072 494.295 42.024 494.523 41.94V40.728C494.367 40.764 494.211 40.776 494.067 40.776C493.335 40.776 492.963 40.476 492.963 39.708V36.876H494.535ZM496.083 34.176C496.455 34.548 497.031 34.548 497.403 34.176C497.775 33.804 497.775 33.228 497.403 32.856C497.031 32.472 496.455 32.472 496.083 32.856C495.711 33.228 495.711 33.804 496.083 34.176ZM497.463 35.592H496.035V42H497.463V35.592ZM502.327 35.46C501.391 35.46 500.587 35.784 499.927 36.42C499.267 37.056 498.931 37.848 498.931 38.784C498.931 39.72 499.255 40.512 499.915 41.148C500.575 41.784 501.379 42.108 502.315 42.108C503.263 42.108 504.055 41.784 504.703 41.148C505.363 40.5 505.687 39.708 505.687 38.76C505.687 37.824 505.363 37.044 504.703 36.408C504.043 35.772 503.251 35.46 502.327 35.46ZM500.923 37.344C501.283 36.948 501.751 36.756 502.315 36.756C502.879 36.756 503.347 36.948 503.695 37.344C504.055 37.74 504.235 38.22 504.235 38.784C504.235 39.348 504.055 39.828 503.707 40.224C503.359 40.62 502.891 40.812 502.327 40.812C501.763 40.812 501.295 40.608 500.935 40.212C500.575 39.804 500.395 39.324 500.395 38.76C500.395 38.196 500.575 37.728 500.923 37.344ZM512.928 42V38.052C512.928 36.516 512.1 35.46 510.528 35.46C509.712 35.46 509.064 35.796 508.572 36.456V35.592H507.18V42H508.608V38.436C508.608 37.464 509.184 36.816 510.084 36.816C511.032 36.816 511.5 37.452 511.5 38.412V42H512.928Z" fill="#4F5E71"/>
<defs>
<clipPath id="clip0_803_2976">
<path d="M184.333 13C184.333 12.4477 184.781 12 185.333 12H368.333V14H185.334C184.781 14 184.333 13.5523 184.333 13Z" fill="white"/>
</clipPath>
<clipPath id="clip1_803_2976">
<path d="M368.667 12H551.667C552.219 12 552.667 12.4477 552.667 13C552.667 13.5523 552.219 14 551.667 14H368.667V12Z" fill="white"/>
</clipPath>
</defs>
</svg>
