<svg width="116" height="109" viewBox="0 0 116 109" fill="none" xmlns="http://www.w3.org/2000/svg">
<circle cx="67.1378" cy="48.3012" r="48.0225" fill="#E5F1F4"/>
<path d="M59.0422 30.2163L59.4752 30.4663L59.7252 30.0333L61.0514 27.7362C62.7252 24.8372 66.4322 23.8439 69.3312 25.5176C72.2302 27.1914 73.2235 30.8984 71.5498 33.7974L70.2236 36.0945L69.9736 36.5275L70.4066 36.7775C80.5835 42.6532 84.0704 55.6664 78.1947 65.8433L65.0723 88.5721C63.3922 91.482 64.3893 95.2029 67.2992 96.883C67.5942 97.0533 67.6953 97.4306 67.525 97.7256L63.9181 103.973C63.5039 104.69 62.5865 104.936 61.8691 104.522L1.9829 69.9465C1.26547 69.5323 1.01965 68.6149 1.43387 67.8974L4.97089 61.7711C5.17976 61.4094 5.64237 61.2854 6.00415 61.4943L6.50575 61.7839C9.47251 63.4967 13.2661 62.4802 14.979 59.5135L26.9252 38.822C33.4177 27.5767 47.7969 23.7238 59.0422 30.2163Z" fill="#F3F3F3" stroke="black"/>
<mask id="path-3-inside-1_2805_8123" fill="white">
<path d="M35.9176 92.0495C34.7328 94.1015 34.4117 96.5402 35.025 98.8291C35.6383 101.118 37.1357 103.069 39.1878 104.254C41.2399 105.439 43.6786 105.76 45.9674 105.147C48.2562 104.533 50.2077 103.036 51.3924 100.984L43.655 96.5167L35.9176 92.0495Z"/>
</mask>
<path d="M35.9176 92.0495C34.7328 94.1015 34.4117 96.5402 35.025 98.8291C35.6383 101.118 37.1357 103.069 39.1878 104.254C41.2399 105.439 43.6786 105.76 45.9674 105.147C48.2562 104.533 50.2077 103.036 51.3924 100.984L43.655 96.5167L35.9176 92.0495Z" fill="#CCCCCC" stroke="black" stroke-width="2" mask="url(#path-3-inside-1_2805_8123)"/>
<circle cx="33.9128" cy="13.4011" r="3.62961" fill="#CCCCCC"/>
<circle cx="92.5417" cy="58.6317" r="3.12961" fill="#CCCCCC" stroke="black"/>
<circle cx="9.9011" cy="49.6972" r="3.12961" stroke="black"/>
</svg>
