<svg width="552" height="72" viewBox="0 0 552 72" fill="none" xmlns="http://www.w3.org/2000/svg">
<path d="M0 3C0 1.34315 1.34315 0 3 0H549C550.657 0 552 1.34315 552 3V69C552 70.6569 550.657 72 549 72H3.00002C1.34316 72 0 70.6569 0 69V3Z" fill="black" fill-opacity="0.02"/>
<path d="M251.526 40H255.6C256.72 40 257.644 39.748 258.372 39.244C259.114 38.74 259.478 37.984 259.478 36.99C259.478 36.472 259.296 35.94 258.946 35.394C258.596 34.848 258.05 34.484 257.322 34.302C258.036 33.98 258.554 33.476 258.736 32.972C258.946 32.454 258.988 32.132 258.988 31.796C258.988 30.928 258.652 30.256 257.994 29.766C257.336 29.276 256.496 29.038 255.46 29.038H251.526V40ZM252.66 30.088H255.362C256.762 30.088 257.826 30.676 257.826 31.922C257.826 33.084 257 33.91 255.278 33.91H252.66V30.088ZM252.66 34.932H255.418C256.37 34.932 257.196 35.086 257.826 35.716C258.148 36.024 258.302 36.416 258.302 36.906C258.302 37.62 258.036 38.138 257.49 38.46C256.958 38.782 256.342 38.95 255.628 38.95H252.66V34.932ZM261.5 32.524V40H262.592V36.346C262.592 35.576 262.774 34.932 263.152 34.386C263.53 33.84 264.118 33.56 264.93 33.56C265.028 33.56 265.168 33.574 265.35 33.588V32.426C265.294 32.412 265.168 32.412 264.986 32.412C264.034 32.412 263.096 32.93 262.578 34.008V32.524H261.5ZM269.862 40.126C270.954 40.126 271.878 39.748 272.62 39.006C273.362 38.264 273.74 37.34 273.74 36.234C273.74 35.156 273.362 34.26 272.62 33.518C271.878 32.776 270.968 32.398 269.89 32.398C268.784 32.398 267.86 32.776 267.118 33.518C266.376 34.26 266.012 35.184 266.012 36.29C266.012 37.354 266.376 38.264 267.118 39.006C267.86 39.748 268.784 40.126 269.862 40.126ZM269.89 39.16C269.092 39.16 268.42 38.88 267.902 38.306C267.384 37.732 267.132 37.032 267.132 36.234C267.132 35.436 267.384 34.75 267.902 34.19C268.42 33.63 269.064 33.35 269.862 33.35C270.66 33.35 271.318 33.644 271.836 34.218C272.354 34.792 272.62 35.492 272.62 36.29C272.62 37.088 272.354 37.76 271.836 38.32C271.318 38.88 270.674 39.16 269.89 39.16ZM277.288 40H278.492L280.48 33.924H280.494L282.468 40H283.686L286.206 32.524H285.072L283.098 38.74H283.084L281.04 32.524H279.948L277.918 38.726H277.904L275.944 32.524H274.782L277.288 40ZM292.569 37.872C292.569 37.41 292.387 36.99 292.037 36.64C291.631 36.22 290.973 35.912 290.077 35.716C288.691 35.422 288.327 35.156 288.327 34.54C288.327 34.218 288.481 33.952 288.775 33.714C289.069 33.476 289.433 33.364 289.839 33.364C290.609 33.364 291.197 33.784 291.589 34.624L292.485 34.134C291.981 32.972 291.099 32.398 289.839 32.398C289.167 32.398 288.565 32.608 288.033 33.028C287.501 33.448 287.235 33.98 287.235 34.624C287.235 35.058 287.375 35.422 287.641 35.744C288.047 36.206 288.565 36.444 289.587 36.668C290.945 36.99 291.463 37.312 291.463 37.942C291.463 38.684 290.721 39.16 289.867 39.16C288.985 39.16 288.313 38.67 287.851 37.704L286.955 38.194C287.529 39.482 288.509 40.126 289.881 40.126C290.651 40.126 291.295 39.916 291.799 39.496C292.317 39.062 292.569 38.53 292.569 37.872ZM301.125 36.598C301.139 36.528 301.139 36.402 301.139 36.234C301.139 35.1 300.831 34.19 300.215 33.476C299.599 32.762 298.731 32.398 297.611 32.398C296.589 32.398 295.721 32.776 295.021 33.546C294.321 34.316 293.971 35.212 293.971 36.248C293.971 37.326 294.335 38.25 295.063 39.006C295.791 39.748 296.687 40.126 297.765 40.126C299.109 40.126 300.299 39.426 300.929 38.194L300.117 37.662C299.683 38.558 298.801 39.16 297.751 39.16C297.023 39.16 296.407 38.922 295.903 38.432C295.399 37.942 295.119 37.326 295.077 36.598H301.125ZM295.091 35.674C295.189 35.03 295.469 34.484 295.945 34.036C296.421 33.574 296.981 33.35 297.611 33.35C299.011 33.35 299.879 34.274 300.033 35.674H295.091Z" fill="#60A5FA"/>
<path d="M250 41.4H301.783V42.1H250V41.4Z" fill="#60A5FA"/>
<path d="M3.00002 71.5C2.66012 71.5 2.33725 71.4324 2.04318 71.3105L1.66012 72.2342C2.07349 72.4056 2.52637 72.5 3.00002 72.5V71.5ZM0.689507 69.9568C0.567557 69.6628 0.5 69.3399 0.5 69H-0.5C-0.5 69.4736 -0.405638 69.9265 -0.234218 70.3399L0.689507 69.9568ZM0.5 69V68.0294H-0.5V69H0.5ZM0.5 66.0882V64.1471H-0.5V66.0882H0.5ZM0.5 62.2059V60.2647H-0.5V62.2059H0.5ZM0.5 58.3235V56.3824H-0.5V58.3235H0.5ZM0.5 54.4412V52.5H-0.5V54.4412H0.5ZM0.5 50.5588V48.6176H-0.5V50.5588H0.5ZM0.5 46.6765V44.7353H-0.5V46.6765H0.5ZM0.5 42.7941V40.8529H-0.5V42.7941H0.5ZM0.5 38.9118V36.9706H-0.5V38.9118H0.5ZM0.5 35.0294V33.0882H-0.5V35.0294H0.5ZM0.5 31.1471V29.2059H-0.5V31.1471H0.5ZM0.5 27.2647V25.3235H-0.5V27.2647H0.5ZM0.5 23.3823V21.4412H-0.5V23.3823H0.5ZM0.5 19.5V17.5588H-0.5V19.5H0.5ZM0.5 15.6176V13.6765H-0.5V15.6176H0.5ZM0.5 11.7353V9.7941H-0.5V11.7353H0.5ZM0.5 7.85292V5.91175H-0.5V7.85292H0.5ZM0.5 3.97057V3H-0.5V3.97057H0.5ZM0.5 3C0.5 2.6601 0.567556 2.33724 0.689505 2.04316L-0.234221 1.66011C-0.405639 2.07348 -0.5 2.52635 -0.5 3H0.5ZM2.04316 0.689505C2.33724 0.567556 2.6601 0.5 3 0.5V-0.5C2.52635 -0.5 2.07348 -0.405639 1.66011 -0.234221L2.04316 0.689505ZM3 0.5H3.99635V-0.5H3V0.5ZM5.98905 0.5H7.98175V-0.5H5.98905V0.5ZM9.97445 0.5H11.9672V-0.5H9.97445V0.5ZM13.9599 0.5H15.9526V-0.5H13.9599V0.5ZM17.9453 0.5H19.938V-0.5H17.9453V0.5ZM21.9307 0.5H23.9234V-0.5H21.9307V0.5ZM25.9161 0.5H27.9088V-0.5H25.9161V0.5ZM29.9015 0.5H31.8942V-0.5H29.9015V0.5ZM33.8869 0.5H35.8796V-0.5H33.8869V0.5ZM37.8723 0.5H39.865V-0.5H37.8723V0.5ZM41.8577 0.5H43.8504V-0.5H41.8577V0.5ZM45.8431 0.5H47.8358V-0.5H45.8431V0.5ZM49.8285 0.5H51.8212V-0.5H49.8285V0.5ZM53.8139 0.5H55.8066V-0.5H53.8139V0.5ZM57.7993 0.5H59.792V-0.5H57.7993V0.5ZM61.7847 0.5H63.7774V-0.5H61.7847V0.5ZM65.7701 0.5H67.7628V-0.5H65.7701V0.5ZM69.7555 0.5H71.7482V-0.5H69.7555V0.5ZM73.7409 0.5H75.7336V-0.5H73.7409V0.5ZM77.7263 0.5H79.719V-0.5H77.7263V0.5ZM81.7117 0.5H83.7044V-0.5H81.7117V0.5ZM85.6971 0.5H87.6898V-0.5H85.6971V0.5ZM89.6825 0.5H91.6752V-0.5H89.6825V0.5ZM93.6679 0.5H95.6606V-0.5H93.6679V0.5ZM97.6533 0.5H99.646V-0.5H97.6533V0.5ZM101.639 0.5H103.631V-0.5H101.639V0.5ZM105.624 0.5H107.617V-0.5H105.624V0.5ZM109.609 0.5H111.602V-0.5H109.609V0.5ZM113.595 0.5H115.588V-0.5H113.595V0.5ZM117.58 0.5H119.573V-0.5H117.58V0.5ZM121.566 0.5H123.558V-0.5H121.566V0.5ZM125.551 0.5H127.544V-0.5H125.551V0.5ZM129.536 0.5H131.529V-0.5H129.536V0.5ZM133.522 0.5H135.515V-0.5H133.522V0.5ZM137.507 0.5H139.5V-0.5H137.507V0.5ZM141.493 0.5H143.485V-0.5H141.493V0.5ZM145.478 0.5H147.471V-0.5H145.478V0.5ZM149.464 0.5H151.456V-0.5H149.464V0.5ZM153.449 0.5H155.442V-0.5H153.449V0.5ZM157.434 0.5H159.427V-0.5H157.434V0.5ZM161.42 0.5H163.412V-0.5H161.42V0.5ZM165.405 0.5H167.398V-0.5H165.405V0.5ZM169.391 0.5H171.383V-0.5H169.391V0.5ZM173.376 0.5H175.369V-0.5H173.376V0.5ZM177.361 0.5H179.354V-0.5H177.361V0.5ZM181.347 0.5H183.34V-0.5H181.347V0.5ZM185.332 0.5H187.325V-0.5H185.332V0.5ZM189.318 0.5H191.31V-0.5H189.318V0.5ZM193.303 0.5H195.296V-0.5H193.303V0.5ZM197.288 0.5H199.281V-0.5H197.288V0.5ZM201.274 0.5H203.267V-0.5H201.274V0.5ZM205.259 0.5H207.252V-0.5H205.259V0.5ZM209.245 0.5H211.237V-0.5H209.245V0.5ZM213.23 0.5H215.223V-0.5H213.23V0.5ZM217.216 0.5H219.208V-0.5H217.216V0.5ZM221.201 0.5H223.194V-0.5H221.201V0.5ZM225.186 0.5H227.179V-0.5H225.186V0.5ZM229.172 0.5H231.164V-0.5H229.172V0.5ZM233.157 0.5H235.15V-0.5H233.157V0.5ZM237.143 0.5H239.135V-0.5H237.143V0.5ZM241.128 0.5H243.121V-0.5H241.128V0.5ZM245.113 0.5H247.106V-0.5H245.113V0.5ZM249.099 0.5H251.092V-0.5H249.099V0.5ZM253.084 0.5H255.077V-0.5H253.084V0.5ZM257.07 0.5H259.062V-0.5H257.07V0.5ZM261.055 0.5H263.048V-0.5H261.055V0.5ZM265.04 0.5H267.033V-0.5H265.04V0.5ZM269.026 0.5H271.019V-0.5H269.026V0.5ZM273.011 0.5H275.004V-0.5H273.011V0.5ZM276.997 0.5H278.989V-0.5H276.997V0.5ZM280.982 0.5H282.975V-0.5H280.982V0.5ZM284.968 0.5H286.96V-0.5H284.968V0.5ZM288.953 0.5H290.946V-0.5H288.953V0.5ZM292.938 0.5H294.931V-0.5H292.938V0.5ZM296.924 0.5H298.916V-0.5H296.924V0.5ZM300.909 0.5H302.902V-0.5H300.909V0.5ZM304.895 0.5H306.887V-0.5H304.895V0.5ZM308.88 0.5H310.873V-0.5H308.88V0.5ZM312.865 0.5H314.858V-0.5H312.865V0.5ZM316.851 0.5H318.844V-0.5H316.851V0.5ZM320.836 0.5H322.829V-0.5H320.836V0.5ZM324.822 0.5H326.814V-0.5H324.822V0.5ZM328.807 0.5H330.8V-0.5H328.807V0.5ZM332.792 0.5H334.785V-0.5H332.792V0.5ZM336.778 0.5H338.771V-0.5H336.778V0.5ZM340.763 0.5H342.756V-0.5H340.763V0.5ZM344.749 0.5H346.741V-0.5H344.749V0.5ZM348.734 0.5H350.727V-0.5H348.734V0.5ZM352.72 0.5H354.712V-0.5H352.72V0.5ZM356.705 0.5H358.698V-0.5H356.705V0.5ZM360.69 0.5H362.683V-0.5H360.69V0.5ZM364.676 0.5H366.668V-0.5H364.676V0.5ZM368.661 0.5H370.654V-0.5H368.661V0.5ZM372.647 0.5H374.639V-0.5H372.647V0.5ZM376.632 0.5H378.625V-0.5H376.632V0.5ZM380.617 0.5H382.61V-0.5H380.617V0.5ZM384.603 0.5H386.596V-0.5H384.603V0.5ZM388.588 0.5H390.581V-0.5H388.588V0.5ZM392.574 0.5H394.566V-0.5H392.574V0.5ZM396.559 0.5H398.552V-0.5H396.559V0.5ZM400.544 0.5H402.537V-0.5H400.544V0.5ZM404.53 0.5H406.523V-0.5H404.53V0.5ZM408.515 0.5H410.508V-0.5H408.515V0.5ZM412.501 0.5H414.493V-0.5H412.501V0.5ZM416.486 0.5H418.479V-0.5H416.486V0.5ZM420.472 0.5H422.464V-0.5H420.472V0.5ZM424.457 0.5H426.45V-0.5H424.457V0.5ZM428.442 0.5H430.435V-0.5H428.442V0.5ZM432.428 0.5H434.42V-0.5H432.428V0.5ZM436.413 0.5H438.406V-0.5H436.413V0.5ZM440.399 0.5H442.391V-0.5H440.399V0.5ZM444.384 0.5H446.377V-0.5H444.384V0.5ZM448.369 0.5H450.362V-0.5H448.369V0.5ZM452.355 0.5H454.348V-0.5H452.355V0.5ZM456.34 0.5H458.333V-0.5H456.34V0.5ZM460.326 0.5H462.318V-0.5H460.326V0.5ZM464.311 0.5H466.304V-0.5H464.311V0.5ZM468.296 0.5H470.289V-0.5H468.296V0.5ZM472.282 0.5H474.275V-0.5H472.282V0.5ZM476.267 0.5H478.26V-0.5H476.267V0.5ZM480.253 0.5H482.245V-0.5H480.253V0.5ZM484.238 0.5H486.231V-0.5H484.238V0.5ZM488.224 0.5H490.216V-0.5H488.224V0.5ZM492.209 0.5H494.202V-0.5H492.209V0.5ZM496.194 0.5H498.187V-0.5H496.194V0.5ZM500.18 0.5H502.172V-0.5H500.18V0.5ZM504.165 0.5H506.158V-0.5H504.165V0.5ZM508.151 0.5H510.143V-0.5H508.151V0.5ZM512.136 0.5H514.129V-0.5H512.136V0.5ZM516.121 0.5H518.114V-0.5H516.121V0.5ZM520.107 0.5H522.099V-0.5H520.107V0.5ZM524.092 0.5H526.085V-0.5H524.092V0.5ZM528.078 0.5H530.07V-0.5H528.078V0.5ZM532.063 0.5H534.056V-0.5H532.063V0.5ZM536.048 0.5H538.041V-0.5H536.048V0.5ZM540.034 0.5H542.026V-0.5H540.034V0.5ZM544.019 0.5H546.012V-0.5H544.019V0.5ZM548.004 0.5H549V-0.5H548.004V0.5ZM549 0.5C549.34 0.5 549.663 0.567556 549.957 0.689505L550.34 -0.234221C549.927 -0.405639 549.474 -0.5 549 -0.5V0.5ZM551.31 2.04316C551.432 2.33724 551.5 2.6601 551.5 3H552.5C552.5 2.52635 552.406 2.07348 552.234 1.66011L551.31 2.04316ZM551.5 3V3.97059H552.5V3H551.5ZM551.5 5.91176V7.85294H552.5V5.91176H551.5ZM551.5 9.79412V11.7353H552.5V9.79412H551.5ZM551.5 13.6765V15.6176H552.5V13.6765H551.5ZM551.5 17.5588V19.5H552.5V17.5588H551.5ZM551.5 21.4412V23.3824H552.5V21.4412H551.5ZM551.5 25.3235V27.2647H552.5V25.3235H551.5ZM551.5 29.2059V31.1471H552.5V29.2059H551.5ZM551.5 33.0882V35.0294H552.5V33.0882H551.5ZM551.5 36.9706V38.9118H552.5V36.9706H551.5ZM551.5 40.8529V42.7941H552.5V40.8529H551.5ZM551.5 44.7353V46.6765H552.5V44.7353H551.5ZM551.5 48.6177V50.5588H552.5V48.6177H551.5ZM551.5 52.5V54.4412H552.5V52.5H551.5ZM551.5 56.3824V58.3235H552.5V56.3824H551.5ZM551.5 60.2647V62.2059H552.5V60.2647H551.5ZM551.5 64.1471V66.0883H552.5V64.1471H551.5ZM551.5 68.0294V69H552.5V68.0294H551.5ZM551.5 69C551.5 69.3399 551.432 69.6628 551.31 69.9568L552.234 70.3399C552.406 69.9265 552.5 69.4736 552.5 69H551.5ZM549.957 71.3105C549.663 71.4324 549.34 71.5 549 71.5V72.5C549.474 72.5 549.927 72.4056 550.34 72.2342L549.957 71.3105ZM549 71.5H548.004V72.5H549V71.5ZM546.011 71.5H544.018V72.5H546.011V71.5ZM542.026 71.5H540.033V72.5H542.026V71.5ZM538.04 71.5H536.047V72.5H538.04V71.5ZM534.055 71.5H532.062V72.5H534.055V71.5ZM530.069 71.5H528.077V72.5H530.069V71.5ZM526.084 71.5H524.091V72.5H526.084V71.5ZM522.099 71.5H520.106V72.5H522.099V71.5ZM518.113 71.5H516.12V72.5H518.113V71.5ZM514.128 71.5H512.135V72.5H514.128V71.5ZM510.142 71.5H508.15V72.5H510.142V71.5ZM506.157 71.5H504.164V72.5H506.157V71.5ZM502.172 71.5H500.179V72.5H502.172V71.5ZM498.186 71.5H496.193V72.5H498.186V71.5ZM494.201 71.5H492.208V72.5H494.201V71.5ZM490.215 71.5H488.223V72.5H490.215V71.5ZM486.23 71.5H484.237V72.5H486.23V71.5ZM482.245 71.5H480.252V72.5H482.245V71.5ZM478.259 71.5H476.266V72.5H478.259V71.5ZM474.274 71.5H472.281V72.5H474.274V71.5ZM470.288 71.5H468.296V72.5H470.288V71.5ZM466.303 71.5H464.31V72.5H466.303V71.5ZM462.318 71.5H460.325V72.5H462.318V71.5ZM458.332 71.5H456.339V72.5H458.332V71.5ZM454.347 71.5H452.354V72.5H454.347V71.5ZM450.361 71.5H448.369V72.5H450.361V71.5ZM446.376 71.5H444.383V72.5H446.376V71.5ZM442.391 71.5H440.398V72.5H442.391V71.5ZM438.405 71.5H436.412V72.5H438.405V71.5ZM434.42 71.5H432.427V72.5H434.42V71.5ZM430.434 71.5H428.442V72.5H430.434V71.5ZM426.449 71.5H424.456V72.5H426.449V71.5ZM422.464 71.5H420.471V72.5H422.464V71.5ZM418.478 71.5H416.485V72.5H418.478V71.5ZM414.493 71.5H412.5V72.5H414.493V71.5ZM410.507 71.5H408.515V72.5H410.507V71.5ZM406.522 71.5H404.529V72.5H406.522V71.5ZM402.536 71.5H400.544V72.5H402.536V71.5ZM398.551 71.5H396.558V72.5H398.551V71.5ZM394.566 71.5H392.573V72.5H394.566V71.5ZM390.58 71.5H388.588V72.5H390.58V71.5ZM386.595 71.5H384.602V72.5H386.595V71.5ZM382.609 71.5H380.617V72.5H382.609V71.5ZM378.624 71.5H376.631V72.5H378.624V71.5ZM374.639 71.5H372.646V72.5H374.639V71.5ZM370.653 71.5H368.66V72.5H370.653V71.5ZM366.668 71.5H364.675V72.5H366.668V71.5ZM362.682 71.5H360.69V72.5H362.682V71.5ZM358.697 71.5H356.704V72.5H358.697V71.5ZM354.712 71.5H352.719V72.5H354.712V71.5ZM350.726 71.5H348.733V72.5H350.726V71.5ZM346.741 71.5H344.748V72.5H346.741V71.5ZM342.755 71.5H340.763V72.5H342.755V71.5ZM338.77 71.5H336.777V72.5H338.77V71.5ZM334.784 71.5H332.792V72.5H334.784V71.5ZM330.799 71.5H328.806V72.5H330.799V71.5ZM326.814 71.5H324.821V72.5H326.814V71.5ZM322.828 71.5H320.836V72.5H322.828V71.5ZM318.843 71.5H316.85V72.5H318.843V71.5ZM314.857 71.5H312.865V72.5H314.857V71.5ZM310.872 71.5H308.879V72.5H310.872V71.5ZM306.887 71.5H304.894V72.5H306.887V71.5ZM302.901 71.5H300.908V72.5H302.901V71.5ZM298.916 71.5H296.923V72.5H298.916V71.5ZM294.93 71.5H292.938V72.5H294.93V71.5ZM290.945 71.5H288.952V72.5H290.945V71.5ZM286.96 71.5H284.967V72.5H286.96V71.5ZM282.974 71.5H280.981V72.5H282.974V71.5ZM278.989 71.5H276.996V72.5H278.989V71.5ZM275.003 71.5H273.011V72.5H275.003V71.5ZM271.018 71.5H269.025V72.5H271.018V71.5ZM267.032 71.5H265.04V72.5H267.032V71.5ZM263.047 71.5H261.054V72.5H263.047V71.5ZM259.062 71.5H257.069V72.5H259.062V71.5ZM255.076 71.5H253.084V72.5H255.076V71.5ZM251.091 71.5H249.098V72.5H251.091V71.5ZM247.105 71.5H245.113V72.5H247.105V71.5ZM243.12 71.5H241.127V72.5H243.12V71.5ZM239.135 71.5H237.142V72.5H239.135V71.5ZM235.149 71.5H233.156V72.5H235.149V71.5ZM231.164 71.5H229.171V72.5H231.164V71.5ZM227.178 71.5H225.186V72.5H227.178V71.5ZM223.193 71.5H221.2V72.5H223.193V71.5ZM219.208 71.5H217.215V72.5H219.208V71.5ZM215.222 71.5H213.229V72.5H215.222V71.5ZM211.237 71.5H209.244V72.5H211.237V71.5ZM207.251 71.5H205.259V72.5H207.251V71.5ZM203.266 71.5H201.273V72.5H203.266V71.5ZM199.28 71.5H197.288V72.5H199.28V71.5ZM195.295 71.5H193.302V72.5H195.295V71.5ZM191.31 71.5H189.317V72.5H191.31V71.5ZM187.324 71.5H185.332V72.5H187.324V71.5ZM183.339 71.5H181.346V72.5H183.339V71.5ZM179.353 71.5H177.361V72.5H179.353V71.5ZM175.368 71.5H173.375V72.5H175.368V71.5ZM171.383 71.5H169.39V72.5H171.383V71.5ZM167.397 71.5H165.404V72.5H167.397V71.5ZM163.412 71.5H161.419V72.5H163.412V71.5ZM159.426 71.5H157.434V72.5H159.426V71.5ZM155.441 71.5H153.448V72.5H155.441V71.5ZM151.456 71.5H149.463V72.5H151.456V71.5ZM147.47 71.5H145.477V72.5H147.47V71.5ZM143.485 71.5H141.492V72.5H143.485V71.5ZM139.499 71.5H137.507V72.5H139.499V71.5ZM135.514 71.5H133.521V72.5H135.514V71.5ZM131.528 71.5H129.536V72.5H131.528V71.5ZM127.543 71.5H125.55V72.5H127.543V71.5ZM123.558 71.5H121.565V72.5H123.558V71.5ZM119.572 71.5H117.58V72.5H119.572V71.5ZM115.587 71.5H113.594V72.5H115.587V71.5ZM111.601 71.5H109.609V72.5H111.601V71.5ZM107.616 71.5H105.623V72.5H107.616V71.5ZM103.631 71.5H101.638V72.5H103.631V71.5ZM99.6452 71.5H97.6525V72.5H99.6452V71.5ZM95.6597 71.5H93.667V72.5H95.6597V71.5ZM91.6743 71.5H89.6816V72.5H91.6743V71.5ZM87.6889 71.5H85.6962V72.5H87.6889V71.5ZM83.7035 71.5H81.7108V72.5H83.7035V71.5ZM79.7181 71.5H77.7254V72.5H79.7181V71.5ZM75.7327 71.5H73.74V72.5H75.7327V71.5ZM71.7473 71.5H69.7545V72.5H71.7473V71.5ZM67.7619 71.5H65.7692V72.5H67.7619V71.5ZM63.7764 71.5H61.7837V72.5H63.7764V71.5ZM59.791 71.5H57.7983V72.5H59.791V71.5ZM55.8056 71.5H53.8129V72.5H55.8056V71.5ZM51.8202 71.5H49.8275V72.5H51.8202V71.5ZM47.8348 71.5H45.8421V72.5H47.8348V71.5ZM43.8494 71.5H41.8567V72.5H43.8494V71.5ZM39.864 71.5H37.8713V72.5H39.864V71.5ZM35.8785 71.5H33.8859V72.5H35.8785V71.5ZM31.8932 71.5H29.9005V72.5H31.8932V71.5ZM27.9079 71.5H25.9152V72.5H27.9079V71.5ZM23.9225 71.5H21.9298V72.5H23.9225V71.5ZM19.9372 71.5H17.9445V72.5H19.9372V71.5ZM15.9518 71.5H13.9591V72.5H15.9518V71.5ZM11.9664 71.5H9.97377V72.5H11.9664V71.5ZM7.98109 71.5H5.98841V72.5H7.98109V71.5ZM3.99574 71.5H3.00002V72.5H3.99574V71.5ZM3.00002 71C2.72699 71 2.46913 70.9458 2.2347 70.8486L1.4686 72.6961C1.94162 72.8922 2.45949 73 3.00002 73V71ZM1.15137 69.7653C1.05415 69.5309 1 69.273 1 69H-1C-1 69.5405 -0.892235 70.0584 -0.69608 70.5314L1.15137 69.7653ZM1 69V68.0294H-1V69H1ZM1 66.0882V64.1471H-1V66.0882H1ZM1 62.2059V60.2647H-1V62.2059H1ZM1 58.3235V56.3824H-1V58.3235H1ZM1 54.4412V52.5H-1V54.4412H1ZM1 50.5588V48.6176H-1V50.5588H1ZM1 46.6765V44.7353H-1V46.6765H1ZM1 42.7941V40.8529H-1V42.7941H1ZM1 38.9118V36.9706H-1V38.9118H1ZM1 35.0294V33.0882H-1V35.0294H1ZM1 31.1471V29.2059H-1V31.1471H1ZM1 27.2647V25.3235H-1V27.2647H1ZM1 23.3823V21.4412H-1V23.3823H1ZM1 19.5V17.5588H-1V19.5H1ZM1 15.6176V13.6765H-1V15.6176H1ZM1 11.7353V9.7941H-1V11.7353H1ZM1 7.85292V5.91175H-1V7.85292H1ZM1 3.97057V3H-1V3.97057H1ZM1 3C1 2.72698 1.05415 2.46912 1.15137 2.23469L-0.696084 1.46858C-0.892237 1.9416 -1 2.45948 -1 3H1ZM2.23469 1.15137C2.46912 1.05415 2.72697 1 3 1V-1C2.45948 -1 1.9416 -0.892237 1.46858 -0.696084L2.23469 1.15137ZM3 1H3.99635V-1H3V1ZM5.98905 1H7.98175V-1H5.98905V1ZM9.97445 1H11.9672V-1H9.97445V1ZM13.9599 1H15.9526V-1H13.9599V1ZM17.9453 1H19.938V-1H17.9453V1ZM21.9307 1H23.9234V-1H21.9307V1ZM25.9161 1H27.9088V-1H25.9161V1ZM29.9015 1H31.8942V-1H29.9015V1ZM33.8869 1H35.8796V-1H33.8869V1ZM37.8723 1H39.865V-1H37.8723V1ZM41.8577 1H43.8504V-1H41.8577V1ZM45.8431 1H47.8358V-1H45.8431V1ZM49.8285 1H51.8212V-1H49.8285V1ZM53.8139 1H55.8066V-1H53.8139V1ZM57.7993 1H59.792V-1H57.7993V1ZM61.7847 1H63.7774V-1H61.7847V1ZM65.7701 1H67.7628V-1H65.7701V1ZM69.7555 1H71.7482V-1H69.7555V1ZM73.7409 1H75.7336V-1H73.7409V1ZM77.7263 1H79.719V-1H77.7263V1ZM81.7117 1H83.7044V-1H81.7117V1ZM85.6971 1H87.6898V-1H85.6971V1ZM89.6825 1H91.6752V-1H89.6825V1ZM93.6679 1H95.6606V-1H93.6679V1ZM97.6533 1H99.646V-1H97.6533V1ZM101.639 1H103.631V-1H101.639V1ZM105.624 1H107.617V-1H105.624V1ZM109.609 1H111.602V-1H109.609V1ZM113.595 1H115.588V-1H113.595V1ZM117.58 1H119.573V-1H117.58V1ZM121.566 1H123.558V-1H121.566V1ZM125.551 1H127.544V-1H125.551V1ZM129.536 1H131.529V-1H129.536V1ZM133.522 1H135.515V-1H133.522V1ZM137.507 1H139.5V-1H137.507V1ZM141.493 1H143.485V-1H141.493V1ZM145.478 1H147.471V-1H145.478V1ZM149.464 1H151.456V-1H149.464V1ZM153.449 1H155.442V-1H153.449V1ZM157.434 1H159.427V-1H157.434V1ZM161.42 1H163.412V-1H161.42V1ZM165.405 1H167.398V-1H165.405V1ZM169.391 1H171.383V-1H169.391V1ZM173.376 1H175.369V-1H173.376V1ZM177.361 1H179.354V-1H177.361V1ZM181.347 1H183.34V-1H181.347V1ZM185.332 1H187.325V-1H185.332V1ZM189.318 1H191.31V-1H189.318V1ZM193.303 1H195.296V-1H193.303V1ZM197.288 1H199.281V-1H197.288V1ZM201.274 1H203.267V-1H201.274V1ZM205.259 1H207.252V-1H205.259V1ZM209.245 1H211.237V-1H209.245V1ZM213.23 1H215.223V-1H213.23V1ZM217.216 1H219.208V-1H217.216V1ZM221.201 1H223.194V-1H221.201V1ZM225.186 1H227.179V-1H225.186V1ZM229.172 1H231.164V-1H229.172V1ZM233.157 1H235.15V-1H233.157V1ZM237.143 1H239.135V-1H237.143V1ZM241.128 1H243.121V-1H241.128V1ZM245.113 1H247.106V-1H245.113V1ZM249.099 1H251.092V-1H249.099V1ZM253.084 1H255.077V-1H253.084V1ZM257.07 1H259.062V-1H257.07V1ZM261.055 1H263.048V-1H261.055V1ZM265.04 1H267.033V-1H265.04V1ZM269.026 1H271.019V-1H269.026V1ZM273.011 1H275.004V-1H273.011V1ZM276.997 1H278.989V-1H276.997V1ZM280.982 1H282.975V-1H280.982V1ZM284.968 1H286.96V-1H284.968V1ZM288.953 1H290.946V-1H288.953V1ZM292.938 1H294.931V-1H292.938V1ZM296.924 1H298.916V-1H296.924V1ZM300.909 1H302.902V-1H300.909V1ZM304.895 1H306.887V-1H304.895V1ZM308.88 1H310.873V-1H308.88V1ZM312.865 1H314.858V-1H312.865V1ZM316.851 1H318.844V-1H316.851V1ZM320.836 1H322.829V-1H320.836V1ZM324.822 1H326.814V-1H324.822V1ZM328.807 1H330.8V-1H328.807V1ZM332.792 1H334.785V-1H332.792V1ZM336.778 1H338.771V-1H336.778V1ZM340.763 1H342.756V-1H340.763V1ZM344.749 1H346.741V-1H344.749V1ZM348.734 1H350.727V-1H348.734V1ZM352.72 1H354.712V-1H352.72V1ZM356.705 1H358.698V-1H356.705V1ZM360.69 1H362.683V-1H360.69V1ZM364.676 1H366.668V-1H364.676V1ZM368.661 1H370.654V-1H368.661V1ZM372.647 1H374.639V-1H372.647V1ZM376.632 1H378.625V-1H376.632V1ZM380.617 1H382.61V-1H380.617V1ZM384.603 1H386.596V-1H384.603V1ZM388.588 1H390.581V-1H388.588V1ZM392.574 1H394.566V-1H392.574V1ZM396.559 1H398.552V-1H396.559V1ZM400.544 1H402.537V-1H400.544V1ZM404.53 1H406.523V-1H404.53V1ZM408.515 1H410.508V-1H408.515V1ZM412.501 1H414.493V-1H412.501V1ZM416.486 1H418.479V-1H416.486V1ZM420.472 1H422.464V-1H420.472V1ZM424.457 1H426.45V-1H424.457V1ZM428.442 1H430.435V-1H428.442V1ZM432.428 1H434.42V-1H432.428V1ZM436.413 1H438.406V-1H436.413V1ZM440.399 1H442.391V-1H440.399V1ZM444.384 1H446.377V-1H444.384V1ZM448.369 1H450.362V-1H448.369V1ZM452.355 1H454.348V-1H452.355V1ZM456.34 1H458.333V-1H456.34V1ZM460.326 1H462.318V-1H460.326V1ZM464.311 1H466.304V-1H464.311V1ZM468.296 1H470.289V-1H468.296V1ZM472.282 1H474.275V-1H472.282V1ZM476.267 1H478.26V-1H476.267V1ZM480.253 1H482.245V-1H480.253V1ZM484.238 1H486.231V-1H484.238V1ZM488.224 1H490.216V-1H488.224V1ZM492.209 1H494.202V-1H492.209V1ZM496.194 1H498.187V-1H496.194V1ZM500.18 1H502.172V-1H500.18V1ZM504.165 1H506.158V-1H504.165V1ZM508.151 1H510.143V-1H508.151V1ZM512.136 1H514.129V-1H512.136V1ZM516.121 1H518.114V-1H516.121V1ZM520.107 1H522.099V-1H520.107V1ZM524.092 1H526.085V-1H524.092V1ZM528.078 1H530.07V-1H528.078V1ZM532.063 1H534.056V-1H532.063V1ZM536.048 1H538.041V-1H536.048V1ZM540.034 1H542.026V-1H540.034V1ZM544.019 1H546.012V-1H544.019V1ZM548.004 1H549V-1H548.004V1ZM549 1C549.273 1 549.531 1.05415 549.765 1.15137L550.531 -0.696085C550.058 -0.892237 549.541 -1 549 -1V1ZM550.849 2.23469C550.946 2.46912 551 2.72698 551 3H553C553 2.45947 552.892 1.9416 552.696 1.46858L550.849 2.23469ZM551 3V3.97059H553V3H551ZM551 5.91176V7.85294H553V5.91176H551ZM551 9.79412V11.7353H553V9.79412H551ZM551 13.6765V15.6176H553V13.6765H551ZM551 17.5588V19.5H553V17.5588H551ZM551 21.4412V23.3824H553V21.4412H551ZM551 25.3235V27.2647H553V25.3235H551ZM551 29.2059V31.1471H553V29.2059H551ZM551 33.0882V35.0294H553V33.0882H551ZM551 36.9706V38.9118H553V36.9706H551ZM551 40.8529V42.7941H553V40.8529H551ZM551 44.7353V46.6765H553V44.7353H551ZM551 48.6177V50.5588H553V48.6177H551ZM551 52.5V54.4412H553V52.5H551ZM551 56.3824V58.3235H553V56.3824H551ZM551 60.2647V62.2059H553V60.2647H551ZM551 64.1471V66.0883H553V64.1471H551ZM551 68.0294V69H553V68.0294H551ZM551 69C551 69.273 550.946 69.5309 550.849 69.7653L552.696 70.5314C552.892 70.0584 553 69.5405 553 69H551ZM549.765 70.8486C549.531 70.9458 549.273 71 549 71V73C549.541 73 550.058 72.8922 550.531 72.6961L549.765 70.8486ZM549 71H548.004V73H549V71ZM546.011 71H544.018V73H546.011V71ZM542.026 71H540.033V73H542.026V71ZM538.04 71H536.047V73H538.04V71ZM534.055 71H532.062V73H534.055V71ZM530.069 71H528.077V73H530.069V71ZM526.084 71H524.091V73H526.084V71ZM522.099 71H520.106V73H522.099V71ZM518.113 71H516.12V73H518.113V71ZM514.128 71H512.135V73H514.128V71ZM510.142 71H508.15V73H510.142V71ZM506.157 71H504.164V73H506.157V71ZM502.172 71H500.179V73H502.172V71ZM498.186 71H496.193V73H498.186V71ZM494.201 71H492.208V73H494.201V71ZM490.215 71H488.223V73H490.215V71ZM486.23 71H484.237V73H486.23V71ZM482.245 71H480.252V73H482.245V71ZM478.259 71H476.266V73H478.259V71ZM474.274 71H472.281V73H474.274V71ZM470.288 71H468.296V73H470.288V71ZM466.303 71H464.31V73H466.303V71ZM462.318 71H460.325V73H462.318V71ZM458.332 71H456.339V73H458.332V71ZM454.347 71H452.354V73H454.347V71ZM450.361 71H448.369V73H450.361V71ZM446.376 71H444.383V73H446.376V71ZM442.391 71H440.398V73H442.391V71ZM438.405 71H436.412V73H438.405V71ZM434.42 71H432.427V73H434.42V71ZM430.434 71H428.442V73H430.434V71ZM426.449 71H424.456V73H426.449V71ZM422.464 71H420.471V73H422.464V71ZM418.478 71H416.485V73H418.478V71ZM414.493 71H412.5V73H414.493V71ZM410.507 71H408.515V73H410.507V71ZM406.522 71H404.529V73H406.522V71ZM402.536 71H400.544V73H402.536V71ZM398.551 71H396.558V73H398.551V71ZM394.566 71H392.573V73H394.566V71ZM390.58 71H388.588V73H390.58V71ZM386.595 71H384.602V73H386.595V71ZM382.609 71H380.617V73H382.609V71ZM378.624 71H376.631V73H378.624V71ZM374.639 71H372.646V73H374.639V71ZM370.653 71H368.66V73H370.653V71ZM366.668 71H364.675V73H366.668V71ZM362.682 71H360.69V73H362.682V71ZM358.697 71H356.704V73H358.697V71ZM354.712 71H352.719V73H354.712V71ZM350.726 71H348.733V73H350.726V71ZM346.741 71H344.748V73H346.741V71ZM342.755 71H340.763V73H342.755V71ZM338.77 71H336.777V73H338.77V71ZM334.784 71H332.792V73H334.784V71ZM330.799 71H328.806V73H330.799V71ZM326.814 71H324.821V73H326.814V71ZM322.828 71H320.836V73H322.828V71ZM318.843 71H316.85V73H318.843V71ZM314.857 71H312.865V73H314.857V71ZM310.872 71H308.879V73H310.872V71ZM306.887 71H304.894V73H306.887V71ZM302.901 71H300.908V73H302.901V71ZM298.916 71H296.923V73H298.916V71ZM294.93 71H292.938V73H294.93V71ZM290.945 71H288.952V73H290.945V71ZM286.96 71H284.967V73H286.96V71ZM282.974 71H280.981V73H282.974V71ZM278.989 71H276.996V73H278.989V71ZM275.003 71H273.011V73H275.003V71ZM271.018 71H269.025V73H271.018V71ZM267.032 71H265.04V73H267.032V71ZM263.047 71H261.054V73H263.047V71ZM259.062 71H257.069V73H259.062V71ZM255.076 71H253.084V73H255.076V71ZM251.091 71H249.098V73H251.091V71ZM247.105 71H245.113V73H247.105V71ZM243.12 71H241.127V73H243.12V71ZM239.135 71H237.142V73H239.135V71ZM235.149 71H233.156V73H235.149V71ZM231.164 71H229.171V73H231.164V71ZM227.178 71H225.186V73H227.178V71ZM223.193 71H221.2V73H223.193V71ZM219.208 71H217.215V73H219.208V71ZM215.222 71H213.229V73H215.222V71ZM211.237 71H209.244V73H211.237V71ZM207.251 71H205.259V73H207.251V71ZM203.266 71H201.273V73H203.266V71ZM199.28 71H197.288V73H199.28V71ZM195.295 71H193.302V73H195.295V71ZM191.31 71H189.317V73H191.31V71ZM187.324 71H185.332V73H187.324V71ZM183.339 71H181.346V73H183.339V71ZM179.353 71H177.361V73H179.353V71ZM175.368 71H173.375V73H175.368V71ZM171.383 71H169.39V73H171.383V71ZM167.397 71H165.404V73H167.397V71ZM163.412 71H161.419V73H163.412V71ZM159.426 71H157.434V73H159.426V71ZM155.441 71H153.448V73H155.441V71ZM151.456 71H149.463V73H151.456V71ZM147.47 71H145.477V73H147.47V71ZM143.485 71H141.492V73H143.485V71ZM139.499 71H137.507V73H139.499V71ZM135.514 71H133.521V73H135.514V71ZM131.528 71H129.536V73H131.528V71ZM127.543 71H125.55V73H127.543V71ZM123.558 71H121.565V73H123.558V71ZM119.572 71H117.58V73H119.572V71ZM115.587 71H113.594V73H115.587V71ZM111.601 71H109.609V73H111.601V71ZM107.616 71H105.623V73H107.616V71ZM103.631 71H101.638V73H103.631V71ZM99.6452 71H97.6525V73H99.6452V71ZM95.6597 71H93.667V73H95.6597V71ZM91.6743 71H89.6816V73H91.6743V71ZM87.6889 71H85.6962V73H87.6889V71ZM83.7035 71H81.7108V73H83.7035V71ZM79.7181 71H77.7254V73H79.7181V71ZM75.7327 71H73.74V73H75.7327V71ZM71.7473 71H69.7545V73H71.7473V71ZM67.7619 71H65.7692V73H67.7619V71ZM63.7764 71H61.7837V73H63.7764V71ZM59.791 71H57.7983V73H59.791V71ZM55.8056 71H53.8129V73H55.8056V71ZM51.8202 71H49.8275V73H51.8202V71ZM47.8348 71H45.8421V73H47.8348V71ZM43.8494 71H41.8567V73H43.8494V71ZM39.864 71H37.8713V73H39.864V71ZM35.8785 71H33.8859V73H35.8785V71ZM31.8932 71H29.9005V73H31.8932V71ZM27.9079 71H25.9152V73H27.9079V71ZM23.9225 71H21.9298V73H23.9225V71ZM19.9372 71H17.9445V73H19.9372V71ZM15.9518 71H13.9591V73H15.9518V71ZM11.9664 71H9.97377V73H11.9664V71ZM7.98109 71H5.98841V73H7.98109V71ZM3.99574 71H3.00002V73H3.99574V71Z" fill="#BAC7D5"/>
</svg>
