<svg width="327" height="60" viewBox="0 0 327 60" fill="none" xmlns="http://www.w3.org/2000/svg">
<rect y="9" width="109" height="2" fill="#1692AD"/>
<circle cx="54" cy="10" r="10" fill="#1692AD"/>
<path d="M50.8125 5.332L51.4965 6.46L53.6085 5.188V13H55.0845V3.604H53.6805L50.8125 5.332Z" fill="white"/>
<path d="M22.7059 32.52C22.7059 31.716 22.4299 31.02 21.8779 30.456C21.3379 29.892 20.5099 29.604 19.4179 29.604H16.0939V39H17.5699V35.52H19.2379C20.3299 35.52 21.1699 35.232 21.7819 34.668C22.3939 34.092 22.7059 33.372 22.7059 32.52ZM19.2859 30.972C19.9819 30.972 20.4739 31.128 20.7619 31.44C21.0619 31.752 21.2059 32.124 21.2059 32.556C21.2059 33.42 20.5939 34.164 19.2859 34.164H17.5699V30.972H19.2859ZM29.7029 36.216C29.7149 36.108 29.7269 35.964 29.7269 35.772C29.7269 34.776 29.4509 33.984 28.8989 33.372C28.3469 32.76 27.5789 32.46 26.6069 32.46C25.6829 32.46 24.9149 32.784 24.3029 33.432C23.6909 34.08 23.3789 34.86 23.3789 35.784C23.3789 36.732 23.7029 37.536 24.3389 38.172C24.9869 38.808 25.7909 39.12 26.7389 39.12C27.8909 39.12 28.9349 38.568 29.4749 37.572L28.4429 36.888C28.0949 37.548 27.5189 37.884 26.7149 37.884C26.2229 37.884 25.7909 37.728 25.4189 37.416C25.0469 37.092 24.8549 36.696 24.8429 36.216H29.7029ZM26.6069 33.684C27.5189 33.684 28.2269 34.236 28.2749 35.136H24.9149C25.0469 34.26 25.7309 33.684 26.6069 33.684ZM34.6977 32.568C34.6137 32.544 34.5057 32.532 34.3497 32.532C33.5697 32.532 32.9817 32.892 32.5857 33.612V32.592H31.1937V39H32.6217V35.748C32.6217 34.632 33.1977 33.996 34.2897 33.996C34.4457 33.996 34.5777 34.008 34.6977 34.032V32.568ZM37.9807 39.108C38.7007 39.108 39.2887 38.928 39.7327 38.556C40.1767 38.184 40.4047 37.704 40.4047 37.116C40.4047 36.12 39.6367 35.424 38.1847 35.1C37.3567 34.92 36.9967 34.704 36.9967 34.284C36.9967 33.936 37.4527 33.66 37.8967 33.66C38.5087 33.66 38.9527 33.948 39.2407 34.524L40.3447 33.9C39.9007 32.94 39.0967 32.46 37.9447 32.46C37.3207 32.46 36.7807 32.64 36.3127 33.012C35.8447 33.384 35.6167 33.852 35.6167 34.428C35.6167 34.884 35.7727 35.268 36.0727 35.592C36.4207 35.964 36.9607 36.216 37.6687 36.36C38.5447 36.54 38.9887 36.828 38.9887 37.2C38.9887 37.632 38.5207 37.908 37.9807 37.908C37.2967 37.908 36.7927 37.56 36.4447 36.876L35.3287 37.5C35.8207 38.568 36.7087 39.108 37.9807 39.108ZM44.8801 32.46C43.9441 32.46 43.1401 32.784 42.4801 33.42C41.8201 34.056 41.4841 34.848 41.4841 35.784C41.4841 36.72 41.8081 37.512 42.4681 38.148C43.1281 38.784 43.9321 39.108 44.8681 39.108C45.8161 39.108 46.6081 38.784 47.2561 38.148C47.9161 37.5 48.2401 36.708 48.2401 35.76C48.2401 34.824 47.9161 34.044 47.2561 33.408C46.5961 32.772 45.8041 32.46 44.8801 32.46ZM43.4761 34.344C43.8361 33.948 44.3041 33.756 44.8681 33.756C45.4321 33.756 45.9001 33.948 46.2481 34.344C46.6081 34.74 46.7881 35.22 46.7881 35.784C46.7881 36.348 46.6081 36.828 46.2601 37.224C45.9121 37.62 45.4441 37.812 44.8801 37.812C44.3161 37.812 43.8481 37.608 43.4881 37.212C43.1281 36.804 42.9481 36.324 42.9481 35.76C42.9481 35.196 43.1281 34.728 43.4761 34.344ZM55.4808 39V35.052C55.4808 33.516 54.6528 32.46 53.0808 32.46C52.2648 32.46 51.6168 32.796 51.1248 33.456V32.592H49.7328V39H51.1608V35.436C51.1608 34.464 51.7368 33.816 52.6368 33.816C53.5848 33.816 54.0528 34.452 54.0528 35.412V39H55.4808ZM60.9865 34.656C60.9865 35.016 60.7825 35.196 60.3865 35.196H59.5945C58.4665 35.196 56.9305 35.664 56.9305 37.152V37.224C56.9305 37.776 57.1345 38.232 57.5425 38.58C57.9505 38.928 58.4665 39.108 59.0905 39.108C59.9545 39.108 60.5785 38.784 60.9745 38.124V39H62.3785V34.92C62.3785 34.476 62.3065 34.092 62.1625 33.768C61.7665 32.892 60.9625 32.46 59.7625 32.46C58.4545 32.46 57.5425 33 57.0385 34.092L58.1305 34.716C58.4545 34.032 58.9945 33.696 59.7265 33.696C60.5305 33.696 60.9865 34.128 60.9865 34.656ZM60.9745 36.408C60.9745 37.368 60.3505 37.968 59.3785 37.968C58.7665 37.968 58.3585 37.62 58.3585 37.092C58.3585 36.816 58.4905 36.6 58.7425 36.444C59.0065 36.288 59.2945 36.204 59.5945 36.204H60.9745V36.408ZM64.2289 39H65.6569V29.232H64.2289V39ZM70.9728 39H72.4488V29.604H70.9728V39ZM80.348 39V35.052C80.348 33.516 79.52 32.46 77.948 32.46C77.132 32.46 76.484 32.796 75.992 33.456V32.592H74.6V39H76.028V35.436C76.028 34.464 76.604 33.816 77.504 33.816C78.452 33.816 78.92 34.452 78.92 35.412V39H80.348ZM85.9137 29.292C85.6857 29.232 85.4697 29.196 85.2537 29.196C83.6817 29.196 82.7337 30.108 82.7337 31.692V32.592H81.5577V33.852H82.7337V39H84.1737V33.852H85.8777V32.592H84.1737V31.74C84.1737 30.888 84.5817 30.468 85.3977 30.468C85.6017 30.468 85.7697 30.48 85.9137 30.516V29.292ZM89.8801 32.46C88.9441 32.46 88.1401 32.784 87.4801 33.42C86.8201 34.056 86.4841 34.848 86.4841 35.784C86.4841 36.72 86.8081 37.512 87.4681 38.148C88.1281 38.784 88.9321 39.108 89.8681 39.108C90.8161 39.108 91.6081 38.784 92.2561 38.148C92.9161 37.5 93.2401 36.708 93.2401 35.76C93.2401 34.824 92.9161 34.044 92.2561 33.408C91.5961 32.772 90.8041 32.46 89.8801 32.46ZM88.4761 34.344C88.8361 33.948 89.3041 33.756 89.8681 33.756C90.4321 33.756 90.9001 33.948 91.2481 34.344C91.6081 34.74 91.7881 35.22 91.7881 35.784C91.7881 36.348 91.6081 36.828 91.2601 37.224C90.9121 37.62 90.4441 37.812 89.8801 37.812C89.3161 37.812 88.8481 37.608 88.4881 37.212C88.1281 36.804 87.9481 36.324 87.9481 35.76C87.9481 35.196 88.1281 34.728 88.4761 34.344Z" fill="#4F5E71"/>
<g clip-path="url(#clip0_1536_2694)">
<rect x="108.667" y="9" width="54.5" height="2" fill="#1692AD"/>
<rect x="163.167" y="9" width="54.5" height="2" fill="#1692AD"/>
</g>
<circle cx="162.667" cy="10" r="10" fill="#1692AD"/>
<path d="M158.799 13H165.411V11.668H160.887L163.071 9.856C163.899 9.172 164.487 8.584 164.835 8.092C165.183 7.588 165.363 6.988 165.363 6.304C165.363 5.464 165.063 4.78 164.463 4.264C163.863 3.736 163.095 3.472 162.171 3.472C161.367 3.472 160.671 3.676 160.083 4.096C159.507 4.516 159.123 5.068 158.931 5.752L160.251 6.304C160.623 5.32 161.259 4.828 162.159 4.828C163.203 4.828 163.839 5.512 163.839 6.412C163.839 6.832 163.719 7.204 163.479 7.54C163.239 7.864 162.795 8.308 162.159 8.848L158.799 11.716V13Z" fill="white"/>
<path d="M133.046 30.972H136.022V39H137.498V30.972H140.486V29.604H133.046V30.972ZM144.02 32.568C143.936 32.544 143.828 32.532 143.672 32.532C142.892 32.532 142.304 32.892 141.908 33.612V32.592H140.516V39H141.944V35.748C141.944 34.632 142.52 33.996 143.612 33.996C143.768 33.996 143.9 34.008 144.02 34.032V32.568ZM145.155 32.592V36.528C145.155 38.064 146.007 39.132 147.555 39.132C148.371 39.132 149.019 38.796 149.511 38.136V39H150.903V32.592H149.475V36.156C149.475 37.128 148.899 37.776 147.999 37.776C147.051 37.776 146.583 37.14 146.583 36.18V32.592H145.155ZM155.725 39.108C156.505 39.108 157.141 38.916 157.633 38.532C158.125 38.148 158.473 37.692 158.653 37.176L157.405 36.624C157.105 37.416 156.553 37.812 155.749 37.812C155.209 37.812 154.753 37.62 154.393 37.236C154.033 36.852 153.853 36.36 153.853 35.76C153.853 35.172 154.033 34.692 154.393 34.32C154.765 33.948 155.209 33.756 155.737 33.756C156.553 33.756 157.105 34.152 157.381 34.932L158.605 34.38C158.221 33.24 157.165 32.46 155.725 32.46C154.777 32.46 153.985 32.784 153.349 33.444C152.713 34.104 152.389 34.884 152.389 35.784C152.389 36.732 152.713 37.524 153.349 38.16C153.985 38.796 154.777 39.108 155.725 39.108ZM160.028 39H161.456V35.868H161.492L164.168 39H166.052L163.004 35.496L165.896 32.592H163.952L161.468 35.112H161.456V29.232H160.028V39ZM170.393 39H171.869V29.604H170.393V39ZM179.768 39V35.052C179.768 33.516 178.94 32.46 177.368 32.46C176.552 32.46 175.904 32.796 175.412 33.456V32.592H174.02V39H175.448V35.436C175.448 34.464 176.024 33.816 176.924 33.816C177.872 33.816 178.34 34.452 178.34 35.412V39H179.768ZM185.334 29.292C185.106 29.232 184.89 29.196 184.674 29.196C183.102 29.196 182.154 30.108 182.154 31.692V32.592H180.978V33.852H182.154V39H183.594V33.852H185.298V32.592H183.594V31.74C183.594 30.888 184.002 30.468 184.818 30.468C185.022 30.468 185.19 30.48 185.334 30.516V29.292ZM189.301 32.46C188.365 32.46 187.561 32.784 186.901 33.42C186.241 34.056 185.905 34.848 185.905 35.784C185.905 36.72 186.229 37.512 186.889 38.148C187.549 38.784 188.353 39.108 189.289 39.108C190.237 39.108 191.029 38.784 191.677 38.148C192.337 37.5 192.661 36.708 192.661 35.76C192.661 34.824 192.337 34.044 191.677 33.408C191.017 32.772 190.225 32.46 189.301 32.46ZM187.897 34.344C188.257 33.948 188.725 33.756 189.289 33.756C189.853 33.756 190.321 33.948 190.669 34.344C191.029 34.74 191.209 35.22 191.209 35.784C191.209 36.348 191.029 36.828 190.681 37.224C190.333 37.62 189.865 37.812 189.301 37.812C188.737 37.812 188.269 37.608 187.909 37.212C187.549 36.804 187.369 36.324 187.369 35.76C187.369 35.196 187.549 34.728 187.897 34.344Z" fill="#252A31"/>
<g clip-path="url(#clip1_1536_2694)">
<rect x="217.333" y="9" width="109" height="2" fill="#1692AD"/>
</g>
<circle cx="271.333" cy="10" r="10" fill="#1692AD"/>
<path d="M274.053 10.36C274.053 9.304 273.513 8.572 272.433 8.152V8.14C273.381 7.684 273.849 6.964 273.849 5.992C273.849 5.284 273.561 4.696 272.997 4.204C272.433 3.712 271.665 3.472 270.705 3.472C269.109 3.472 267.993 4.336 267.561 5.584L268.845 6.172C269.229 5.272 269.841 4.816 270.681 4.816C271.737 4.816 272.349 5.38 272.349 6.148C272.349 6.532 272.193 6.868 271.869 7.144C271.557 7.42 271.161 7.552 270.681 7.552H269.757V8.884H270.765C271.281 8.884 271.701 9.028 272.025 9.316C272.361 9.592 272.529 9.94 272.529 10.336C272.529 10.72 272.361 11.056 272.013 11.344C271.665 11.62 271.245 11.764 270.741 11.764C269.793 11.764 269.109 11.296 268.701 10.372L267.429 10.996C267.993 12.4 269.085 13.108 270.717 13.108C271.689 13.108 272.481 12.844 273.105 12.316C273.741 11.776 274.053 11.128 274.053 10.36Z" fill="white"/>
<path d="M255.296 30.972H258.272V39H259.748V30.972H262.736V29.604H255.296V30.972ZM266.27 32.568C266.186 32.544 266.078 32.532 265.922 32.532C265.142 32.532 264.554 32.892 264.158 33.612V32.592H262.766V39H264.194V35.748C264.194 34.632 264.77 33.996 265.862 33.996C266.018 33.996 266.15 34.008 266.27 34.032V32.568ZM267.404 32.592V36.528C267.404 38.064 268.256 39.132 269.804 39.132C270.62 39.132 271.268 38.796 271.76 38.136V39H273.152V32.592H271.724V36.156C271.724 37.128 271.148 37.776 270.248 37.776C269.3 37.776 268.832 37.14 268.832 36.18V32.592H267.404ZM277.974 39.108C278.754 39.108 279.39 38.916 279.882 38.532C280.374 38.148 280.722 37.692 280.902 37.176L279.654 36.624C279.354 37.416 278.802 37.812 277.998 37.812C277.458 37.812 277.002 37.62 276.642 37.236C276.282 36.852 276.102 36.36 276.102 35.76C276.102 35.172 276.282 34.692 276.642 34.32C277.014 33.948 277.458 33.756 277.986 33.756C278.802 33.756 279.354 34.152 279.63 34.932L280.854 34.38C280.47 33.24 279.414 32.46 277.974 32.46C277.026 32.46 276.234 32.784 275.598 33.444C274.962 34.104 274.638 34.884 274.638 35.784C274.638 36.732 274.962 37.524 275.598 38.16C276.234 38.796 277.026 39.108 277.974 39.108ZM282.277 39H283.705V35.868H283.741L286.417 39H288.301L285.253 35.496L288.145 32.592H286.201L283.717 35.112H283.705V29.232H282.277V39ZM241.372 53.296L238.576 45.604H236.932L240.496 55H242.2L245.752 45.604H244.192L241.372 53.296ZM252.04 52.216C252.052 52.108 252.064 51.964 252.064 51.772C252.064 50.776 251.788 49.984 251.236 49.372C250.684 48.76 249.916 48.46 248.944 48.46C248.02 48.46 247.252 48.784 246.64 49.432C246.028 50.08 245.716 50.86 245.716 51.784C245.716 52.732 246.04 53.536 246.676 54.172C247.324 54.808 248.128 55.12 249.076 55.12C250.228 55.12 251.272 54.568 251.812 53.572L250.78 52.888C250.432 53.548 249.856 53.884 249.052 53.884C248.56 53.884 248.128 53.728 247.756 53.416C247.384 53.092 247.192 52.696 247.18 52.216H252.04ZM248.944 49.684C249.856 49.684 250.564 50.236 250.612 51.136H247.252C247.384 50.26 248.068 49.684 248.944 49.684ZM257.035 48.568C256.951 48.544 256.843 48.532 256.687 48.532C255.907 48.532 255.319 48.892 254.923 49.612V48.592H253.531V55H254.959V51.748C254.959 50.632 255.535 49.996 256.627 49.996C256.783 49.996 256.915 50.008 257.035 50.032V48.568ZM258.29 47.176C258.662 47.548 259.238 47.548 259.61 47.176C259.982 46.804 259.982 46.228 259.61 45.856C259.238 45.472 258.662 45.472 258.29 45.856C257.918 46.228 257.918 46.804 258.29 47.176ZM259.67 48.592H258.242V55H259.67V48.592ZM263.562 48.592V47.74C263.562 46.888 263.97 46.468 264.786 46.468C264.99 46.468 265.158 46.48 265.302 46.516V45.292C265.074 45.232 264.858 45.196 264.642 45.196C263.07 45.196 262.122 46.108 262.122 47.692V48.592H260.946V49.852H262.122V55H263.562V49.852H266.454V55H267.894V48.592H263.562ZM267.162 47.452C267.69 47.452 268.122 47.032 268.122 46.516C268.122 46 267.69 45.568 267.162 45.568C266.67 45.568 266.238 46 266.238 46.516C266.238 47.032 266.646 47.452 267.162 47.452ZM272.712 55.108C273.492 55.108 274.128 54.916 274.62 54.532C275.112 54.148 275.46 53.692 275.64 53.176L274.392 52.624C274.092 53.416 273.54 53.812 272.736 53.812C272.196 53.812 271.74 53.62 271.38 53.236C271.02 52.852 270.84 52.36 270.84 51.76C270.84 51.172 271.02 50.692 271.38 50.32C271.752 49.948 272.196 49.756 272.724 49.756C273.54 49.756 274.092 50.152 274.368 50.932L275.592 50.38C275.208 49.24 274.152 48.46 272.712 48.46C271.764 48.46 270.972 48.784 270.336 49.444C269.7 50.104 269.376 50.884 269.376 51.784C269.376 52.732 269.7 53.524 270.336 54.16C270.972 54.796 271.764 55.108 272.712 55.108ZM280.676 50.656C280.676 51.016 280.472 51.196 280.076 51.196H279.284C278.156 51.196 276.62 51.664 276.62 53.152V53.224C276.62 53.776 276.824 54.232 277.232 54.58C277.64 54.928 278.156 55.108 278.78 55.108C279.644 55.108 280.268 54.784 280.664 54.124V55H282.068V50.92C282.068 50.476 281.996 50.092 281.852 49.768C281.456 48.892 280.652 48.46 279.452 48.46C278.144 48.46 277.232 49 276.728 50.092L277.82 50.716C278.144 50.032 278.684 49.696 279.416 49.696C280.22 49.696 280.676 50.128 280.676 50.656ZM280.664 52.408C280.664 53.368 280.04 53.968 279.068 53.968C278.456 53.968 278.048 53.62 278.048 53.092C278.048 52.816 278.18 52.6 278.432 52.444C278.696 52.288 278.984 52.204 279.284 52.204H280.664V52.408ZM287.351 49.876V48.592H285.779V46.612H284.351V48.592H283.175V49.876H284.351V52.936C284.351 54.328 285.167 55.072 286.571 55.072C286.847 55.072 287.111 55.024 287.339 54.94V53.728C287.183 53.764 287.027 53.776 286.883 53.776C286.151 53.776 285.779 53.476 285.779 52.708V49.876H287.351ZM288.899 47.176C289.271 47.548 289.847 47.548 290.219 47.176C290.591 46.804 290.591 46.228 290.219 45.856C289.847 45.472 289.271 45.472 288.899 45.856C288.527 46.228 288.527 46.804 288.899 47.176ZM290.279 48.592H288.851V55H290.279V48.592ZM295.143 48.46C294.207 48.46 293.403 48.784 292.743 49.42C292.083 50.056 291.747 50.848 291.747 51.784C291.747 52.72 292.071 53.512 292.731 54.148C293.391 54.784 294.195 55.108 295.131 55.108C296.079 55.108 296.871 54.784 297.519 54.148C298.179 53.5 298.503 52.708 298.503 51.76C298.503 50.824 298.179 50.044 297.519 49.408C296.859 48.772 296.067 48.46 295.143 48.46ZM293.739 50.344C294.099 49.948 294.567 49.756 295.131 49.756C295.695 49.756 296.163 49.948 296.511 50.344C296.871 50.74 297.051 51.22 297.051 51.784C297.051 52.348 296.871 52.828 296.523 53.224C296.175 53.62 295.707 53.812 295.143 53.812C294.579 53.812 294.111 53.608 293.751 53.212C293.391 52.804 293.211 52.324 293.211 51.76C293.211 51.196 293.391 50.728 293.739 50.344ZM305.744 55V51.052C305.744 49.516 304.916 48.46 303.344 48.46C302.528 48.46 301.88 48.796 301.388 49.456V48.592H299.996V55H301.424V51.436C301.424 50.464 302 49.816 302.9 49.816C303.848 49.816 304.316 50.452 304.316 51.412V55H305.744Z" fill="#4F5E71"/>
<defs>
<clipPath id="clip0_1536_2694">
<path d="M108.667 10C108.667 9.44772 109.114 9 109.667 9H217.667V11H109.667C109.114 11 108.667 10.5523 108.667 10Z" fill="white"/>
</clipPath>
<clipPath id="clip1_1536_2694">
<path d="M217.333 9H325.333C325.886 9 326.333 9.44772 326.333 10C326.333 10.5523 325.886 11 325.333 11H217.333V9Z" fill="white"/>
</clipPath>
</defs>
</svg>
